<?xml version="1.0" encoding="UTF-8"?>
<svg width="30px" height="30px" viewBox="0 0 30 30" version="1.1" xmlns="http://www.w3.org/2000/svg" xmlns:xlink="http://www.w3.org/1999/xlink">
    <title>ic_add_type_p</title>
    <g id="效果图" stroke="none" stroke-width="1" fill="none" fill-rule="evenodd">
        <g id="切图" transform="translate(-110.000000, -111.000000)">
            <g id="ic_add_type_p" transform="translate(110.000000, 111.000000)">
                <rect id="矩形备份-2" fill="#00A5FF" x="0" y="0" width="30" height="30" rx="15"></rect>
                <path d="M15,9 C15.5522847,9 16,9.44771525 16,10 L16,14 L20,14 C20.5522847,14 21,14.4477153 21,15 C21,15.5522847 20.5522847,16 20,16 L16,16 L16,20 C16,20.5522847 15.5522847,21 15,21 C14.4477153,21 14,20.5522847 14,20 L14,16 L10,16 C9.44771525,16 9,15.5522847 9,15 C9,14.4477153 9.44771525,14 10,14 L14,14 L14,10 C14,9.44771525 14.4477153,9 15,9 Z" id="形状结合" fill="#FFFFFF"></path>
            </g>
        </g>
    </g>
</svg>