<?xml version="1.0" encoding="UTF-8"?>
<svg width="18px" height="18px" viewBox="0 0 18 18" version="1.1" xmlns="http://www.w3.org/2000/svg" xmlns:xlink="http://www.w3.org/1999/xlink">
    <title>ic_close_tab</title>
    <g id="效果图" stroke="none" stroke-width="1" fill="none" fill-rule="evenodd">
        <g id="切图" transform="translate(-30.000000, -73.000000)" fill="#FFFFFF">
            <g id="ic_close_tab" transform="translate(30.000000, 73.000000)">
                <path d="M6.70710678,5.29289322 L8.828,7.413 L10.9497475,5.29289322 C11.3102314,4.93240926 11.8774625,4.90467972 12.2697537,5.20970461 L12.363961,5.29289322 C12.7544853,5.68341751 12.7544853,6.31658249 12.363961,6.70710678 L12.363961,6.70710678 L10.242,8.828 L12.363961,10.9497475 C12.7544853,11.3402718 12.7544853,11.9734367 12.363961,12.363961 C11.9734367,12.7544853 11.3402718,12.7544853 10.9497475,12.363961 L8.828,10.242 L6.70710678,12.363961 C6.34662282,12.724445 5.77939176,12.7521745 5.38710056,12.4471496 L5.29289322,12.363961 C4.90236893,11.9734367 4.90236893,11.3402718 5.29289322,10.9497475 L5.29289322,10.9497475 L7.413,8.828 L5.29289322,6.70710678 C4.90236893,6.31658249 4.90236893,5.68341751 5.29289322,5.29289322 C5.68341751,4.90236893 6.31658249,4.90236893 6.70710678,5.29289322 Z" id="形状结合"></path>
            </g>
        </g>
    </g>
</svg>