<?xml version="1.0" encoding="UTF-8"?>
<svg width="20px" height="20px" viewBox="0 0 20 20" version="1.1" xmlns="http://www.w3.org/2000/svg" xmlns:xlink="http://www.w3.org/1999/xlink">
    <title>ic_device_warning</title>
    <g id="效果图" stroke="none" stroke-width="1" fill="none" fill-rule="evenodd">
        <g id="切图" transform="translate(-29.000000, -297.000000)" fill-rule="nonzero">
            <g id="ic_device_warning" transform="translate(29.000000, 297.000000)">
                <path d="M10,0 C4.47621175,0 0,4.47844539 0,10 C0,15.5215546 4.47844539,20 10,20 C15.5215546,20 20,15.5215546 20,10 C20,4.47844539 15.5237883,0 10,0 Z" id="路径" fill="#CD4444"></path>
                <path d="M10.173209,13.425917 C10.8708322,13.425917 11.4386139,13.9936987 11.4386139,14.6913219 C11.4386139,15.3889451 10.8730329,15.9567268 10.173209,15.9567268 C9.47338502,15.9567268 8.90780403,15.3889451 8.90780403,14.6913219 C8.90780403,13.9936987 9.47558572,13.425917 10.173209,13.425917 Z M10.173209,4.69572331 C10.8730329,4.69572331 11.4386139,5.263505 11.4386139,5.96112823 L11.4386139,11.0183465 C11.4386139,11.7181705 10.8708322,12.2837515 10.173209,12.2837515 C9.47338502,12.2837515 8.90780403,11.7159698 8.90780403,11.0183465 L8.90780403,5.96112823 C8.90780403,5.26130429 9.47558572,4.69572331 10.173209,4.69572331 Z" id="形状结合" fill="#FFFFFF"></path>
            </g>
        </g>
    </g>
</svg>