<?xml version="1.0" encoding="UTF-8"?>
<svg width="22px" height="22px" viewBox="0 0 22 22" version="1.1" xmlns="http://www.w3.org/2000/svg" xmlns:xlink="http://www.w3.org/1999/xlink">
    <title>ic.edit</title>
    <g id="效果图" stroke="none" stroke-width="1" fill="none" fill-rule="evenodd">
        <g id="切图" transform="translate(-974.000000, -33.000000)" fill="#FFFFFF" fill-rule="nonzero">
            <g id="ic.edit" transform="translate(974.000000, 33.000000)">
                <path d="M17.5913224,6.16363636 L15.7497679,4.18545455 C15.5195736,3.93818182 15.1428919,3.93818182 14.9126976,4.18545455 L13.0502163,6.1861157 L15.7288411,9.06347107 L17.5913224,7.06280992 C17.8215167,6.81553719 17.8215167,6.42214876 17.5913224,6.16363636 L17.5913224,6.16363636 Z M12.4956573,6.78181818 L6.290874,13.4469421 C6.12345995,13.6267769 5.97697265,14.0201653 5.97697265,14.0201653 L5.01434186,17.3021488 C4.94109821,17.5494215 5.16082916,17.7742149 5.39102348,17.7067769 L8.42540315,16.6727273 C8.42540315,16.6727273 8.79162138,16.5266116 8.96949881,16.3242975 L15.1742821,9.65917355 L12.4956573,6.78181818 L12.4956573,6.78181818 Z"></path>
            </g>
        </g>
    </g>
</svg>