<?xml version="1.0" encoding="UTF-8"?>
<svg width="34px" height="34px" viewBox="0 0 34 34" version="1.1" xmlns="http://www.w3.org/2000/svg" xmlns:xlink="http://www.w3.org/1999/xlink">
    <title>ic_activation</title>
    <g id="效果图" stroke="none" stroke-width="1" fill="none" fill-rule="evenodd">
        <g id="切图" transform="translate(-543.000000, -25.000000)" fill="#FFFFFF" fill-rule="nonzero">
            <g id="ic_activation" transform="translate(545.000000, 27.000000)">
                <path d="M25.5544024,10.5845974 L25.5544024,4.38422388 L19.353815,4.38422388 L14.9694201,0 L10.5853672,4.38422388 L4.38482265,4.38422388 L4.38482265,10.5845974 L0,14.9692062 L4.38482265,19.3534301 L4.38482265,25.5538036 L10.5850251,25.5538036 L14.9694201,29.9384124 L19.353815,25.5538036 L25.5544024,25.5538036 L25.5544024,19.3534301 L29.9384124,14.9692062 L25.5544024,10.5845974 Z M23.1427777,18.3544708 L23.1427777,23.1421789 L18.3552406,23.1421789 L14.9693773,26.5278285 L11.5843265,23.1421789 L6.79640454,23.1421789 L6.79640454,18.3544708 L3.41096886,14.9692062 L6.79640454,11.5835567 L6.79640454,6.79584854 L11.5839416,6.79584854 L14.9693773,3.41058394 L18.3552406,6.79584854 L23.1427777,6.79584854 L23.1427777,11.5835567 L26.5282134,14.9692062 L23.1427777,18.3544708 Z" id="形状"></path>
                <polygon id="路径" points="13.9154169 15.5868357 11.6416372 13.3130988 9.93647354 15.018348 13.9154169 18.9972913 15.6206661 17.2919993 19.5996094 13.3130988 17.8944457 11.6078068"></polygon>
            </g>
        </g>
    </g>
</svg>