<?xml version="1.0" encoding="UTF-8"?>
<svg width="24px" height="24px" viewBox="0 0 24 24" version="1.1" xmlns="http://www.w3.org/2000/svg" xmlns:xlink="http://www.w3.org/1999/xlink">
    <title>ic_add_device</title>
    <g id="效果图" stroke="none" stroke-width="1" fill="none" fill-rule="evenodd">
        <g id="切图" transform="translate(-350.000000, -160.000000)" fill="#FFFFFF" fill-rule="nonzero">
            <g id="添加设备" transform="translate(352.000000, 163.000000)">
                <path d="M16.0274865,1.24344979e-14 L3.88525994,0.0315710582 C1.74272207,0.0315710582 -8.8817842e-15,1.77429313 -8.8817842e-15,3.916831 L-8.8817842e-15,11.5001977 C-8.8817842e-15,13.642483 1.74272207,15.3854576 3.88525994,15.3854576 L9.18288248,15.3854576 L9.18288248,16.8902602 L6.03461717,16.8902602 C5.60736026,16.8902602 5.26100011,17.2366204 5.26100011,17.6638773 C5.26100011,18.0911342 5.60736026,18.4374944 6.03461717,18.4374944 L13.878887,18.4374944 C14.3061439,18.4374944 14.6525041,18.0911342 14.6525041,17.6638773 C14.6525041,17.2366204 14.3061439,16.8902602 13.878887,16.8902602 L10.7301166,16.8902602 L10.7301166,15.3854576 L16.0274865,15.3854576 C18.1700244,15.3854576 19.9127465,13.642483 19.9127465,11.5001977 L19.9127465,3.916831 C19.9127465,1.77454569 18.1700244,1.24344979e-14 16.0274865,1.24344979e-14 Z M18.3657649,11.7378646 C18.3657649,13.0269738 17.3171009,14.0758904 16.0274865,14.0758904 L3.88525994,14.0758904 C2.59589818,14.0758904 1.54723412,13.0272263 1.54723412,11.7378646 L1.54723412,3.916831 C1.54723412,2.6277218 2.59564562,1.57880516 3.88525994,1.57880516 L16.0274865,1.57880516 C17.3168483,1.57880516 18.3657649,2.62746922 18.3657649,3.916831 L18.3657649,11.7378646 Z" id="形状结合"></path>
                <path d="M6.89082411,7.11864081 L13.0219224,7.11864081 C13.4491332,7.11870599 13.7954214,7.46504705 13.7954214,7.89225786 C13.7954214,8.31946868 13.4491332,8.66580974 13.0219224,8.66587492 L6.89107667,8.66587492 C6.46386586,8.66580974 6.11757763,8.31946868 6.11757763,7.89225786 C6.11757763,7.46504705 6.46386586,7.11870599 6.89107667,7.11864081 L6.89082411,7.11864081 Z M9.18288248,10.755626 L9.18288248,4.62478026 C9.18294765,4.19756945 9.52928872,3.85128122 9.95649953,3.85128122 C10.3837103,3.85128122 10.7300514,4.19756945 10.7301166,4.62478026 L10.7301166,10.755626 C10.7300514,11.1828368 10.3837103,11.529125 9.95649953,11.529125 C9.52928872,11.529125 9.18294765,11.1828368 9.18288248,10.755626 Z" id="形状"></path>
            </g>
        </g>
    </g>
</svg>