<?xml version="1.0" encoding="UTF-8"?>
<svg width="30px" height="30px" viewBox="0 0 30 30" version="1.1" xmlns="http://www.w3.org/2000/svg" xmlns:xlink="http://www.w3.org/1999/xlink">
    <title>ic_close_pop_p</title>
    <g id="效果图" stroke="none" stroke-width="1" fill="none" fill-rule="evenodd">
        <g id="切图" transform="translate(-188.000000, -485.000000)">
            <g id="ic_close_pop_p" transform="translate(189.000000, 486.000000)">
                <circle id="椭圆形" stroke="#FFFFFF" stroke-width="2" fill="#00A5FF" cx="14" cy="14" r="14"></circle>
                <path d="M11.4523239,9.99684165 L14.2585915,12.8032431 L17.0648592,9.99684165 C17.4225189,9.63918192 17.985306,9.61166963 18.3745237,9.91430479 L18.467993,9.99684165 C18.8554577,10.3843064 18.8554577,11.0125108 18.467993,11.3999755 L18.467993,11.3999755 L15.6615915,14.2062431 L18.467993,17.0125108 C18.8554577,17.3999755 18.8554577,18.0281799 18.467993,18.4156446 C18.0805283,18.8031093 17.4523239,18.8031093 17.0648592,18.4156446 L14.2585915,15.6092431 L11.4523239,18.4156446 C11.0946642,18.7733043 10.5318771,18.8008166 10.1426593,18.4981814 L10.0491901,18.4156446 C9.66172535,18.0281799 9.66172535,17.3999755 10.0491901,17.0125108 L10.0491901,17.0125108 L12.8555915,14.2062431 L10.0491901,11.3999755 C9.66172535,11.0125108 9.66172535,10.3843064 10.0491901,9.99684165 C10.4366548,9.60937694 11.0648592,9.60937694 11.4523239,9.99684165 Z" id="形状结合" fill="#FFFFFF" opacity="0.899999976"></path>
            </g>
        </g>
    </g>
</svg>