<?xml version="1.0" encoding="UTF-8"?>
<svg width="24px" height="24px" viewBox="0 0 24 24" version="1.1" xmlns="http://www.w3.org/2000/svg" xmlns:xlink="http://www.w3.org/1999/xlink">
    <title>ic_distribution_network_disable</title>
    <g id="效果图" stroke="none" stroke-width="1" fill="none" fill-rule="evenodd" opacity="0.299999982">
        <g id="切图" transform="translate(-387.000000, -192.000000)" fill="#FFFFFF" fill-rule="nonzero">
            <g id="ic_distribution_network_disable" transform="translate(389.000000, 194.000000)">
                <path d="M10.8105231,19.363995 L13.5115619,19.363995 C13.9599807,19.363995 14.3241894,19.7262683 14.3241894,20.174647 L14.3241894,20.189348 C14.3241894,20.6370587 13.9603637,21 13.5115619,21 L6.48843999,21 C6.03963826,21 5.67581257,20.6370587 5.67581257,20.189348 L5.67581257,20.174647 C5.67581257,19.7262683 6.04002123,19.363995 6.48843999,19.363995 L9.1894788,19.363995 L9.1894788,12.1132798 C8.36926033,11.7746632 7.83534367,10.9753202 7.83790677,10.0897999 C7.83790677,8.88537262 8.80632287,7.90880996 10.000001,7.90880996 C11.1936791,7.90880996 12.1620952,8.88537262 12.1620952,10.0897999 C12.1620952,11.0065087 11.6031507,11.7909091 10.8105231,12.1132798 L10.8105231,19.363995 Z M17.073649,16.9341391 C16.9224416,17.0876787 16.7157294,17.174167 16.4999677,17.174167 C16.284206,17.174167 16.0774938,17.0876787 15.9262864,16.9341391 C15.6098403,16.6130018 15.6098403,16.0981022 15.9262864,15.7769648 C17.5024159,14.1859701 18.3840387,12.0378504 18.3789055,9.80103138 C18.3789055,5.93363321 15.7831293,2.58706847 12.1294638,1.62100648 C11.6948913,1.50314773 11.4365933,1.05808107 11.5505194,0.623442465 C11.6033267,0.414591319 11.7374861,0.235391437 11.9232411,0.125589296 C12.108996,0.015787154 12.3309912,-0.015540451 12.539988,0.0385549332 C16.9031235,1.19152892 19.999975,5.18493517 19.999975,9.80103138 C20.0059114,12.4707127 18.9541025,15.0345867 17.073649,16.9341391 L17.073649,16.9341391 Z M7.51264527,0.0249040572 C7.72177966,-0.0281061119 7.94347053,0.00426111023 8.12860482,0.114835138 C8.3137391,0.225409165 8.44703273,0.405061365 8.49895602,0.613991858 C8.61119023,1.04953673 8.35041081,1.49389335 7.91474848,1.60945574 C4.23897781,2.55976672 1.6221491,5.91683213 1.6221491,9.80103138 C1.61659511,12.0192586 2.48317398,14.1512215 4.03582096,15.7391624 C4.35055619,16.0615331 4.34739831,16.5792163 4.02845258,16.8963367 C3.87625902,17.0489118 3.66898913,17.1340787 3.45322603,17.132713 C3.23746294,17.1313141 3.03130665,17.0434987 2.88109002,16.8889862 C1.0283144,14.9932294 -0.00597339939,12.4486654 2.59540995e-05,9.80103138 C2.59540995e-05,5.16498389 3.12319405,1.15897683 7.51264527,0.0249040572 L7.51264527,0.0249040572 Z M14.3968206,14.5242345 C14.2456132,14.6777741 14.038901,14.7642624 13.8231393,14.7642624 C13.6073776,14.7642624 13.4006654,14.6777741 13.249458,14.5242345 C12.9337011,14.2032245 12.9337011,13.6891202 13.249458,13.3681103 C14.1143217,12.4954771 14.5979412,11.3169247 14.5947143,10.0897999 C14.5947143,7.52973563 12.5378827,5.45375242 10.000001,5.45375242 C7.46317184,5.45375242 5.40528764,7.52973563 5.40528764,10.0897999 C5.40528764,11.3278294 5.88633781,12.4860537 6.73159664,13.3492091 C7.04633187,13.6705297 7.04317399,14.189263 6.72422826,14.5063833 C6.57207491,14.6586318 6.36503281,14.743591 6.14953005,14.7422091 C5.93402729,14.7408272 5.72809714,14.65322 5.57791833,14.4990328 C4.42448147,13.320187 3.78048476,11.7371067 3.78422694,10.0897999 C3.78422694,6.62562762 6.56738695,3.81774744 10.000001,3.81774744 C13.432615,3.81774744 16.2157586,6.62562762 16.2157586,10.0897999 C16.2157586,11.7751581 15.5536568,13.3555095 14.3968206,14.5242345 Z" id="配网"></path>
            </g>
        </g>
    </g>
</svg>