<?xml version="1.0" encoding="UTF-8"?>
<svg width="60px" height="60px" viewBox="0 0 60 60" version="1.1" xmlns="http://www.w3.org/2000/svg" xmlns:xlink="http://www.w3.org/1999/xlink">
    <title>ic_device_lock</title>
    <g id="效果图" stroke="none" stroke-width="1" fill="none" fill-rule="evenodd">
        <g id="切图" transform="translate(-27.000000, -470.000000)" fill-rule="nonzero">
            <g id="ic_device_lock" transform="translate(27.000000, 470.000000)">
                <path d="M30,0 C13.4286352,0 0,13.4353362 0,30 C0,46.5646638 13.4353362,60 30,60 C46.5646638,60 60,46.5646638 60,30 C60,13.4353362 46.5713648,0 30,0 Z" id="路径" fill="#1E232D" opacity="0.799999952"></path>
                <path d="M38.5010832,26.9434286 L37.8610337,26.9434286 L37.8610337,25.3834286 C37.8563417,21.3069632 34.5755688,18.0037788 30.5277004,18 L29.4722996,18 C25.4257595,18.0047214 22.1462964,21.3065869 22.1406685,25.3817143 L22.1406685,26.9434286 L21.500619,26.9434286 C20.1218903,26.9490652 19.0055971,28.0732449 19,29.4617143 L19,39.4817143 C19,40.872 20.1183844,42 21.4989168,42 L38.5010832,42 C39.8799133,42 41,40.872 41,39.4817143 L41,29.4617143 C40.9944097,28.0739103 39.8791471,26.9500034 38.5010832,26.9434286 Z M24.1391199,25.3834286 C24.138217,23.9587098 24.6998136,22.5920823 25.7001746,21.5846538 C26.7005356,20.5772252 28.0575758,20.0116611 29.4722996,20.0125703 L30.5311049,20.0125703 C31.9449438,20.0121167 33.30103,20.5774112 34.3009248,21.5840486 C35.3008195,22.5906861 35.8625812,23.9561724 35.8625812,25.38 L35.8625812,26.9417143 L24.1391199,26.9417143 L24.1391199,25.3817143 L24.1391199,25.3834286 Z M38.9998452,39.4817143 C38.9998452,39.7593977 38.776817,39.9847698 38.5010832,39.9857143 L21.4989168,39.9857143 C21.223183,39.9847698 21.0001548,39.7593977 21.0001548,39.4817143 L21.0001548,29.4617143 C21.0001548,29.1822857 21.2231507,28.9577143 21.4989168,28.9577143 L38.5010832,28.9577143 C38.7768493,28.9577143 38.9998452,29.1822857 38.9998452,29.4617143 L38.9998452,39.4817143 L38.9998452,39.4817143 Z" id="形状" fill="#FFFFFF"></path>
            </g>
        </g>
    </g>
</svg>