<?xml version="1.0" encoding="UTF-8"?>
<svg width="24px" height="24px" viewBox="0 0 24 24" version="1.1" xmlns="http://www.w3.org/2000/svg" xmlns:xlink="http://www.w3.org/1999/xlink">
    <title>ic_device_warning</title>
    <g id="效果图" stroke="none" stroke-width="1" fill="none" fill-rule="evenodd">
        <g id="切图" transform="translate(-136.000000, -345.000000)">
            <g id="ic_device_warning" transform="translate(139.000000, 348.000000)">
                <path d="M9,-0.9 C11.7340052,-0.9 14.2087878,0.20819235 16.0001806,1.99958515 C17.7919297,3.79133426 18.9,6.26656058 18.9,9 C18.9,11.7331695 17.7916396,14.208202 15.9999208,15.9999208 C14.208202,17.7916396 11.7331695,18.9 9,18.9 C6.26683047,18.9 3.791798,17.7916396 2.00007922,15.9999208 C0.20836043,14.208202 -0.9,11.7331695 -0.9,9 C-0.9,6.26656058 0.208070281,3.79133426 1.99981939,1.99958515 C3.79121219,0.20819235 6.26599482,-0.9 9,-0.9 Z" id="路径" stroke="#FFFFFF" stroke-width="1.8" fill="#FC2864" fill-rule="nonzero"></path>
                <rect id="矩形" fill="#FFFFFF" x="8" y="3" width="2" height="8" rx="1"></rect>
                <path d="M9.07722092,14.8656845 C9.76757685,14.8656845 10.3272209,14.3060404 10.3272209,13.6156845 C10.3272209,12.9253286 9.76757685,12.3656845 9.07722092,12.3656845 C8.38686498,12.3656845 7.82722092,12.9253286 7.82722092,13.6156845 C7.82722092,14.3060404 8.38686498,14.8656845 9.07722092,14.8656845 Z" id="椭圆形" fill="#FFFFFF"></path>
            </g>
        </g>
    </g>
</svg>