<?xml version="1.0" encoding="UTF-8"?>
<svg width="90px" height="70px" viewBox="0 0 90 70" version="1.1" xmlns="http://www.w3.org/2000/svg" xmlns:xlink="http://www.w3.org/1999/xlink">
    <title>ic_excel</title>
    <g id="效果图" stroke="none" stroke-width="1" fill="none" fill-rule="evenodd">
        <g id="切图" transform="translate(-317.000000, -348.000000)">
            <g id="ic_excel" transform="translate(322.000000, 348.000000)">
                <path d="M16.7414653,5.5061664 L73.9067894,5.5061664 C76.2794742,5.5061664 78.2029152,7.42960744 78.2029152,9.80229222 L78.2029152,60.60398 C78.2029152,62.9766648 76.2794742,64.9001058 73.9067894,64.9001058 L16.7414653,64.9001058 C14.3687805,64.9001058 12.4453395,62.9766648 12.4453395,60.60398 L12.4453395,9.80229222 C12.4453395,7.42960744 14.3687805,5.5061664 16.7414653,5.5061664 Z" id="矩形" fill="#FFFFFF"></path>
                <rect id="矩形" fill="#D7D7D7" x="57.2727273" y="16.969697" width="12.7272727" height="3.18181818" rx="1.59090909"></rect>
                <rect id="矩形备份-7" fill="#D7D7D7" x="57.2727273" y="25.4545455" width="12.7272727" height="3.18181818" rx="1.59090909"></rect>
                <rect id="矩形备份-8" fill="#D7D7D7" x="57.2727273" y="33.9393939" width="12.7272727" height="3.18181818" rx="1.59090909"></rect>
                <rect id="矩形备份-9" fill="#D7D7D7" x="57.2727273" y="42.4242424" width="12.7272727" height="3.18181818" rx="1.59090909"></rect>
                <rect id="矩形备份-10" fill="#D7D7D7" x="57.2727273" y="50.9090909" width="12.7272727" height="3.18181818" rx="1.59090909"></rect>
                <g id="编组-7">
                    <path d="M5.03466711,2.37822396 L46.3983035,0.282305595 C49.3233336,0.134092696 51.8146894,2.38514785 51.9629023,5.31017801 C51.9674313,5.39956074 51.969697,5.4890438 51.969697,5.5785412 L51.969697,64.4214588 C51.969697,67.3502416 49.5954494,69.7244891 46.6666667,69.7244891 C46.5771693,69.7244891 46.4876862,69.7222235 46.3983035,69.7176944 L5.03466711,67.621776 C2.21380917,67.4788416 3.01043392e-15,65.1500173 0,62.3255404 L0,7.67445957 C2.3186366e-15,4.84998267 2.21380917,2.5211584 5.03466711,2.37822396 Z" id="矩形" fill="#3BB063"></path>
                    <path d="M38.4876568,21.2121212 L28.9348788,34.9071212 L38.4876568,48.6135942 L31.1402301,48.2117537 L25.3978788,39.9781212 L21.1353055,46.0905415 L13.7878788,46.492382 L21.8608788,34.9081212 L13.7878788,23.3333333 L21.2215465,23.8379519 L25.3978788,29.8311212 L31.053989,21.7167398 L38.4876568,21.2121212 Z" id="形状结合" fill="#FFFFFF"></path>
                </g>
            </g>
        </g>
    </g>
</svg>