<?xml version="1.0" encoding="UTF-8"?>
<svg width="20px" height="20px" viewBox="0 0 20 20" version="1.1" xmlns="http://www.w3.org/2000/svg" xmlns:xlink="http://www.w3.org/1999/xlink">
    <title>ic_failure_reason</title>
    <g id="效果图" stroke="none" stroke-width="1" fill="none" fill-rule="evenodd" opacity="0.799999952">
        <g id="切图" transform="translate(-502.000000, -126.000000)" fill="#FFFFFF" fill-rule="nonzero">
            <g id="ic_failure_reason" transform="translate(502.000000, 126.000000)">
                <path d="M10,0 C15.5237883,0 20,4.47844539 20,10 C20,15.5215546 15.5215546,20 10,20 C4.47844539,20 0,15.5215546 0,10 C0,4.47844539 4.47621175,0 10,0 Z M10,1 C5.02930241,1 1,5.02992412 1,10 C1,14.9692699 5.03073014,19 10,19 C14.9692699,19 19,14.9692699 19,10 C19,5.02992412 14.9706976,1 10,1 Z M9.78619836,13.3520927 C10.0941984,13.3520927 10.3601984,13.4500927 10.5701984,13.6460927 C10.7661984,13.8420927 10.8781984,14.0940927 10.8781984,14.4020927 C10.8781984,14.7100927 10.7661984,14.9760927 10.5561984,15.1720927 C10.3461984,15.3680927 10.0941984,15.4660927 9.78619836,15.4660927 C9.47819836,15.4660927 9.22619836,15.3540927 9.01619836,15.1580927 C8.80619836,14.9620927 8.70819836,14.7100927 8.70819836,14.4020927 C8.70819836,14.0940927 8.80619836,13.8420927 9.01619836,13.6460927 C9.22619836,13.4500927 9.47819836,13.3520927 9.78619836,13.3520927 Z M10.0381984,4.78848706 C10.9481984,4.78848706 11.6901984,5.02648706 12.2501984,5.53048706 C12.8101984,6.02048706 13.0901984,6.69248706 13.0901984,7.54648706 C13.0901984,8.24648706 12.9081984,8.82048706 12.5721984,9.26848706 C12.4461984,9.40848706 12.0401984,9.78648706 11.3681984,10.3744871 C11.1161984,10.5844871 10.9341984,10.8224871 10.8081984,11.0744871 C10.6681984,11.3544871 10.5981984,11.6484871 10.5981984,11.9844871 L10.5981984,11.9844871 L10.5981984,12.1804871 C10.4555317,12.4208024 10.1871984,12.54096 9.79319836,12.54096 C9.39919836,12.54096 9.13086503,12.4208024 8.98819836,12.1804871 L8.98819836,12.1804871 L8.98819836,11.9844871 C8.98819836,11.4524871 9.07219836,10.9904871 9.26819836,10.6124871 C9.45019836,10.2344871 9.99619836,9.64648706 10.9061984,8.83448706 L10.9061984,8.83448706 L11.0741984,8.63848706 C11.3261984,8.33048706 11.4521984,7.99448706 11.4521984,7.64448706 C11.4521984,7.18248706 11.3121984,6.81848706 11.0601984,6.55248706 C10.7941984,6.28648706 10.4161984,6.16048706 9.94019836,6.16048706 C9.32419836,6.16048706 8.89019836,6.34248706 8.62419836,6.73448706 C8.38619836,7.05648706 8.27419836,7.51848706 8.27419836,8.10648706 C8.07009941,8.34431479 7.79283629,8.46322865 7.44240898,8.46322865 C7.09198167,8.46322865 6.8372448,8.34431479 6.67819836,8.10648706 C6.67819836,7.07048706 6.97219836,6.25848706 7.58819836,5.67048706 C8.19019836,5.08248706 9.00219836,4.78848706 10.0381984,4.78848706 Z" id="形状结合"></path>
            </g>
        </g>
    </g>
</svg>