<?xml version="1.0" encoding="UTF-8"?>
<svg width="72px" height="72px" viewBox="0 0 72 72" version="1.1" xmlns="http://www.w3.org/2000/svg" xmlns:xlink="http://www.w3.org/1999/xlink">
    <title>ic_file</title>
    <g id="效果图" stroke="none" stroke-width="1" fill="none" fill-rule="evenodd">
        <g id="切图" transform="translate(-466.000000, -346.000000)">
            <g id="ic_file" transform="translate(472.000000, 346.000000)">
                <path d="M3.58280255,-1.52776569e-05 L39.410828,-1.52776569e-05 L59.7133758,20.3025478 L59.7133758,68.0732484 C59.7051713,69.0193919 59.3180152,69.9227563 58.638535,70.5812102 C57.9864951,71.2699477 57.0789969,71.6588755 56.1305732,71.6560662 L3.58280255,71.6560662 C2.63665904,71.6478465 1.73329469,71.2606904 1.07484076,70.5812102 C0.386103301,69.9291703 -0.00282450441,69.021672 -1.52776569e-05,68.0732484 L-1.52776569e-05,3.58280255 C-1.52776569e-05,2.68471338 0.420382166,1.79140127 1.07484076,1.07484076 C1.7268807,0.386103301 2.63437891,-0.00282450441 3.58280255,-1.52776569e-05 Z" id="形状" fill="#F7B958" fill-rule="nonzero"></path>
                <path d="M59.7133758,20.302563 L42.9936306,20.302563 C42.0452069,20.3053723 41.1377087,19.9164445 40.4856688,19.227707 C39.7969313,18.5756671 39.4080035,17.6681689 39.4108127,16.7197452 L39.4108127,0 L59.7133758,20.302563 Z" id="路径" fill="#FFE8C4" fill-rule="nonzero"></path>
                <rect id="矩形" fill="#FFFFFF" x="11" y="31" width="24" height="4" rx="1"></rect>
                <rect id="矩形备份-9" fill="#FFFFFF" x="11" y="45" width="38" height="4" rx="1"></rect>
            </g>
        </g>
    </g>
</svg>