<?xml version="1.0" encoding="UTF-8"?>
<svg width="36px" height="36px" viewBox="0 0 36 36" version="1.1" xmlns="http://www.w3.org/2000/svg" xmlns:xlink="http://www.w3.org/1999/xlink">
    <title>ic_import</title>
    <defs>
        <linearGradient x1="50%" y1="1.63625437%" x2="50%" y2="80.2695567%" id="linearGradient-1">
            <stop stop-color="#ECF8FF" offset="0%"></stop>
            <stop stop-color="#949EC1" offset="100%"></stop>
        </linearGradient>
    </defs>
    <g id="效果图" stroke="none" stroke-width="1" fill="none" fill-rule="evenodd">
        <g id="切图" transform="translate(-609.000000, -23.000000)">
            <g id="ic_import" transform="translate(609.000000, 23.000000)">
                <path d="M2,0 L34,0 C35.1045695,-2.02906125e-16 36,0.8954305 36,2 L36,34 C36,35.1045695 35.1045695,36 34,36 L2,36 C0.8954305,36 1.3527075e-16,35.1045695 0,34 L0,2 C-1.3527075e-16,0.8954305 0.8954305,2.02906125e-16 2,0 Z" id="矩形" fill="#505769"></path>
                <path d="M22.5,12.5 L22.5,20 L27,20 L18,29 L9,20 L13.5,20 L13.5,12.5 L22.5,12.5 Z M22.5,8 L22.5,11 L13.5,11 L13.5,8 L22.5,8 Z" id="形状结合" fill="url(#linearGradient-1)"></path>
            </g>
        </g>
    </g>
</svg>