<?xml version="1.0" encoding="UTF-8"?>
<svg width="20px" height="21px" viewBox="0 0 20 21" version="1.1" xmlns="http://www.w3.org/2000/svg" xmlns:xlink="http://www.w3.org/1999/xlink">
    <title>ic_lock_position</title>
    <g id="效果图" stroke="none" stroke-width="1" fill="none" fill-rule="evenodd" opacity="0.799999952">
        <g id="切图" transform="translate(-30.000000, -257.000000)" fill="#FFFFFF" fill-rule="nonzero">
            <g id="ic_lock_position" transform="translate(32.000000, 259.000000)">
                <path d="M7.62244844,-1.03561604e-12 C11.1412337,-1.03561604e-12 13.0247292,2.25820931 13.1085251,6.33346033 L13.111,6.573 L13.1492623,6.57545873 C14.1841222,6.65180787 15,7.5156112 15,8.56997299 L15,14.569973 C15,15.6745425 14.1045695,16.569973 13,16.569973 L2,16.569973 C0.8954305,16.569973 0,15.6745425 0,14.569973 L0,8.56997299 C0,7.46540349 0.8954305,6.56997299 2,6.56997299 L2.046,6.569 L2.05094664,6.40365786 C2.19929537,2.27899521 4.10676943,-1.03561604e-12 7.62244844,-1.03561604e-12 Z M13,8.56997299 L2,8.56997299 L2,14.569973 L13,14.569973 L13,8.56997299 Z M7.62244844,2 C5.30277862,2 4.16148582,3.34055301 4.05034104,6.44725921 L4.047,6.569 L11.11,6.569 L11.1087408,6.34770937 C11.0473021,3.30480306 9.93903058,2 7.62244844,2 Z" id="形状结合"></path>
            </g>
        </g>
    </g>
</svg>