<?xml version="1.0" encoding="UTF-8"?>
<svg width="30px" height="30px" viewBox="0 0 30 30" version="1.1" xmlns="http://www.w3.org/2000/svg" xmlns:xlink="http://www.w3.org/1999/xlink">
    <title>ic_lock_screen</title>
    <g id="效果图" stroke="none" stroke-width="1" fill="none" fill-rule="evenodd">
        <g id="切图" transform="translate(-910.000000, -29.000000)" fill="#FFFFFF" fill-rule="nonzero">
            <path d="M925.118044,30.1432255 C930.71949,30.1432255 933.518084,34.0747634 933.386678,41.1533789 L933.383211,41.2622255 L934.031579,41.2631579 C935.845398,41.2631579 937.315789,42.733549 937.315789,44.5473684 L937.315789,54.4 C937.315789,56.2138194 935.845398,57.6842105 934.031579,57.6842105 L915.968421,57.6842105 C914.154602,57.6842105 912.684211,56.2138194 912.684211,54.4 L912.684211,44.5473684 C912.684211,42.733549 914.154602,41.2631579 915.968421,41.2631579 L916.654211,41.2622255 L916.654114,41.0023846 C916.66795,34.0115989 919.537589,30.1432255 925.118044,30.1432255 Z M934.031579,44.2631579 L915.968421,44.2631579 C915.83388,44.2631579 915.721173,44.3566443 915.691717,44.4822016 L915.684211,44.5473684 L915.684211,54.4 C915.684211,54.5345415 915.777697,54.6472482 915.903254,54.6767043 L915.968421,54.6842105 L934.031579,54.6842105 C934.16612,54.6842105 934.278827,54.5907241 934.308283,54.4651669 L934.315789,54.4 L934.315789,44.5473684 C934.315789,44.4128269 934.222303,44.3001202 934.096746,44.2706641 L934.031579,44.2631579 Z M925.118044,33.1432255 C921.432473,33.1432255 919.658973,35.5133655 919.653853,40.9929332 L919.655211,41.2622255 L930.382211,41.2622255 L930.387647,41.0891876 C930.498577,35.532433 928.784095,33.1432255 925.118044,33.1432255 Z" id="ic_lock_screen"></path>
        </g>
    </g>
</svg>