<?xml version="1.0" encoding="UTF-8"?>
<svg width="24px" height="24px" viewBox="0 0 24 24" version="1.1" xmlns="http://www.w3.org/2000/svg" xmlns:xlink="http://www.w3.org/1999/xlink">
    <title>ic_name_of_hareware</title>
    <defs>
        <linearGradient x1="50%" y1="1.63625437%" x2="50%" y2="80.2695567%" id="linearGradient-1">
            <stop stop-color="#ECF8FF" offset="0%"></stop>
            <stop stop-color="#949EC1" offset="100%"></stop>
        </linearGradient>
    </defs>
    <g id="效果图" stroke="none" stroke-width="1" fill="none" fill-rule="evenodd">
        <g id="切图" transform="translate(-677.000000, -25.000000)">
            <g id="ic_name_of_hareware" transform="translate(679.000000, 30.000000)">
                <path d="M15.8540737,0.0619159101 L4.14613139,0.0619159101 C3.78208584,0.0619159101 3.44680057,0.259752856 3.27078553,0.578418618 L0,6.5 L0,6.5 L0,13 C1.04869017e-15,13.5522847 0.44771525,14 1,14 L19,14 C19.5522847,14 20,13.5522847 20,13 L20,6.5 L20,6.5 L16.7294324,0.578441847 C16.5534212,0.259763094 16.2181287,0.0619159101 15.8540737,0.0619159101 Z" id="路径" fill="url(#linearGradient-1)"></path>
                <path d="M17.4443701,12.566509 L2.55585284,12.566509 C2.00356809,12.566509 1.55585284,12.1187938 1.55585284,11.566509 L1.55585284,8.1624298 C1.55585284,7.61014505 2.00356809,7.1624298 2.55585284,7.1624298 L17.4443701,7.1624298 C17.9966549,7.1624298 18.4443701,7.61014505 18.4443701,8.1624298 L18.4443701,11.566509 C18.4443701,12.1187938 17.9966549,12.566509 17.4443701,12.566509 Z" id="路径" fill="#57627F" fill-rule="nonzero"></path>
            </g>
        </g>
    </g>
</svg>