<?xml version="1.0" encoding="UTF-8"?>
<svg width="22px" height="10px" viewBox="0 0 22 10" version="1.1" xmlns="http://www.w3.org/2000/svg" xmlns:xlink="http://www.w3.org/1999/xlink">
    <title>ic_power_40%</title>
    <g id="效果图" stroke="none" stroke-width="1" fill="none" fill-rule="evenodd">
        <g id="切图" transform="translate(-59.000000, -289.000000)">
            <g id="ic_power_40%" transform="translate(59.000000, 289.000000)">
                <path d="M18.5,1 L1.5,1 C1.25454011,1 1.05039163,1.17687516 1.00805567,1.41012437 L1,1.5 L1,8.5 C1,8.74545989 1.17687516,8.94960837 1.41012437,8.99194433 L1.5,9 L18.5,9 C18.7454599,9 18.9496084,8.82312484 18.9919443,8.58987563 L19,8.5 L19,1.5 C19,1.22385763 18.7761424,1 18.5,1 Z M20,8.5 C20,9.32842712 19.3284271,10 18.5,10 L1.5,10 C0.671572875,10 0,9.32842712 0,8.5 L0,1.5 C0,0.671572875 0.671572875,0 1.5,0 L18.5,0 C19.3284271,0 20,0.671572875 20,1.5 L20,3 L20.5,3 C20.7761424,3 21,3.22385763 21,3.5 L21,6.5 C21,6.77614237 20.7761424,7 20.5,7 L20,7 L20,8.5 Z" id="形状结合" fill="#BDC6E6" fill-rule="nonzero"></path>
                <path d="M3,2 L8,2 C8.55228475,2 9,2.44771525 9,3 L9,7 C9,7.55228475 8.55228475,8 8,8 L3,8 C2.44771525,8 2,7.55228475 2,7 L2,3 C2,2.44771525 2.44771525,2 3,2 Z" id="矩形" fill="#30E0FE"></path>
            </g>
        </g>
    </g>
</svg>