<?xml version="1.0" encoding="UTF-8"?>
<svg width="24px" height="24px" viewBox="0 0 24 24" version="1.1" xmlns="http://www.w3.org/2000/svg" xmlns:xlink="http://www.w3.org/1999/xlink">
    <title>ic_restore_factory </title>
    <g id="效果图" stroke="none" stroke-width="1" fill="none" fill-rule="evenodd">
        <g id="切图" transform="translate(-98.000000, -161.000000)" fill="#FFFFFF">
            <g id="ic_restore_factory-" transform="translate(100.000000, 163.000000)">
                <path d="M10,0 C15.5228475,0 20,4.4771525 20,10 C20,15.5228475 15.5228475,20 10,20 C6.24807007,20 2.9787413,17.9337388 1.26786842,14.8770711 C1.26493755,14.8718348 1.24022756,14.8213109 1.19373844,14.7254994 C0.994937765,14.3157994 1.16591349,13.8225149 1.57561675,13.6237209 C1.62679719,13.5988874 1.68041017,13.5794171 1.73559901,13.565621 C2.3071024,13.4227575 2.90330975,13.6815606 3.1892289,14.1966105 C3.1975563,14.2116117 3.20307414,14.221285 3.20578241,14.2256303 C4.61823814,16.4918578 7.13299633,18 10,18 C14.418278,18 18,14.418278 18,10 C18,5.581722 14.418278,2 10,2 C7.47247228,2 5.21871138,3.17213505 3.75263936,5.00248306 L6.36879518,4.54193505 C6.91268948,4.4460318 7.43134787,4.80920032 7.52725111,5.35309462 C7.62315435,5.89698892 7.25998584,6.41564731 6.71609153,6.51155055 L2.03836919,7.33723613 C1.9327853,7.37200327 1.82139333,7.39064579 1.70795623,7.39133049 L1.79205277,7.37979144 C1.51378126,7.42885821 1.24211559,7.35775694 1.03029364,7.20376518 C0.984129883,7.17142439 0.941582719,7.13495861 0.903300711,7.09477033 C0.767399273,6.9556541 0.67001579,6.775174 0.633596838,6.56863186 C0.616226609,6.4701204 0.613916385,6.3724368 0.625012295,6.27794305 L0.626694202,1.39267254 C0.626694202,0.840387789 1.07440945,0.392672539 1.6266942,0.392672539 C2.17897895,0.392672539 2.6266942,0.840387789 2.6266942,1.39267254 L2.62663554,3.24465533 C4.45475527,1.2503666 7.08135825,0 10,0 Z M10,8 C11.1045695,8 12,8.8954305 12,10 C12,11.1045695 11.1045695,12 10,12 C8.8954305,12 8,11.1045695 8,10 C8,8.8954305 8.8954305,8 10,8 Z" id="形状结合"></path>
            </g>
        </g>
    </g>
</svg>