<?xml version="1.0" encoding="UTF-8"?>
<svg width="24px" height="24px" viewBox="0 0 24 24" version="1.1" xmlns="http://www.w3.org/2000/svg" xmlns:xlink="http://www.w3.org/1999/xlink">
    <title>ic_restart_disable</title>
    <g id="效果图" stroke="none" stroke-width="1" fill="none" fill-rule="evenodd" opacity="0.299999982">
        <g id="切图" transform="translate(-65.000000, -192.000000)" fill="#FFFFFF">
            <g id="ic_restart_disable" transform="translate(66.000000, 193.000000)">
                <path d="M4.30663907,3.3160309 C2.65411972,4.85871684 1.5288566,6.5738427 0.94782698,8.45521101 C0.784857808,8.98290363 1.08052458,9.54279563 1.60821719,9.7057648 C2.1359098,9.86873397 2.6958018,9.5730672 2.85877098,9.04537459 C3.33229842,7.51209728 4.26419358,6.09170283 5.67143374,4.77799379 C6.07514365,4.40111615 6.0968955,3.76832492 5.72001786,3.36461501 C5.34314022,2.96090511 4.71034898,2.93915326 4.30663907,3.3160309 Z M0.630460226,13.3780594 C0.974122732,15.5356692 1.93427572,17.4811485 3.38514834,18.9671779 C3.77097013,19.3623488 4.40408975,19.3699277 4.79926058,18.9841059 C5.19443142,18.5982841 5.20201031,17.9651645 4.81618851,17.5699936 C3.65785281,16.3835897 2.88494624,14.8175125 2.60556308,13.0634665 C2.51869064,12.5180569 2.00612478,12.1463391 1.46071518,12.2332115 C0.915305592,12.320084 0.543587785,12.8326498 0.630460226,13.3780594 Z M7.75113432,21.5142123 C8.81560584,21.7976624 9.94389829,21.9059474 11.1113807,21.8315521 C12.057428,21.7712673 12.9669738,21.5688748 13.8287286,21.2338555 C14.3434823,21.0337377 14.5985451,20.4542199 14.3984273,19.9394663 C14.1983096,19.4247126 13.6187918,19.1696498 13.1040381,19.3697676 C12.4324249,19.6308667 11.7243015,19.7884386 10.9841931,19.8356004 C10.0309261,19.8963452 9.11939121,19.808863 8.26576634,19.5815577 C7.7320785,19.439446 7.18423472,19.7568811 7.04212302,20.290569 C6.90001131,20.8242568 7.21744648,21.3721006 7.75113432,21.5142123 Z M17.8527217,18.2807457 C19.2009297,16.6601074 20.1018989,14.641142 20.3893916,12.6586259 C20.4686517,12.1120582 20.0898239,11.6047245 19.5432562,11.5254645 C18.9966884,11.4462045 18.4893548,11.8250323 18.4100948,12.3716 C18.175624,13.988483 17.4278158,15.6642327 16.3151954,17.0016785 C15.9619907,17.4262547 16.0198488,18.0567706 16.4444249,18.4099753 C16.8690011,18.7631799 17.499517,18.7053219 17.8527217,18.2807457 Z M19.7484471,7.73073522 C19.0626576,6.10589386 17.9061198,4.56720059 16.2906605,3.11146277 C15.8803809,2.74174782 15.2480705,2.77463193 14.8783555,3.18491147 C14.5086406,3.59519102 14.5415247,4.22750148 14.9518042,4.59721643 C16.3609944,5.8670791 17.3417322,7.17188256 17.9058445,8.50843415 C18.1206001,9.01725481 18.7071746,9.25564162 19.2159952,9.04088599 C19.7248159,8.82613036 19.9632027,8.23955588 19.7484471,7.73073522 Z" id="路径-2" fill-rule="nonzero"></path>
                <rect id="矩形" x="9.51198323" y="0" width="2" height="9" rx="1"></rect>
            </g>
        </g>
    </g>
</svg>