<?xml version="1.0" encoding="UTF-8"?>
<svg width="24px" height="24px" viewBox="0 0 24 24" version="1.1" xmlns="http://www.w3.org/2000/svg" xmlns:xlink="http://www.w3.org/1999/xlink">
    <title>ic_share</title>
    <g id="效果图" stroke="none" stroke-width="1" fill="none" fill-rule="evenodd">
        <g id="切图" transform="translate(-311.000000, -161.000000)" fill="#FFFFFF" fill-rule="nonzero">
            <g id="ic_share" transform="translate(313.000000, 162.000000)">
                <path d="M0.417061575,1.56157991 C1.17683141,0.243436547 2.78024616,-0.334266505 4.20920739,0.195287007 C5.63816861,0.724840518 6.47437819,2.20663503 6.1868795,3.69979563 L6.12758986,3.95034347 L14.0255937,8.50066571 C15.2868431,7.57157117 17.0434671,7.72022103 18.1297528,8.84796978 C19.2160386,9.97571854 19.2946201,11.7323231 18.31335,12.9520836 C17.3320799,14.1718441 15.5957095,14.4759414 14.2565113,13.6625737 L14.027154,13.5069539 L6.12758986,18.0557199 C6.46629454,19.2736863 6.03286398,20.5750062 5.03079101,21.3487186 C4.02871804,22.1224309 2.65702387,22.214869 1.55970997,21.5826338 C0.462396074,20.9503985 -0.142600585,19.7190579 0.0287619807,18.4667182 C0.200124547,17.2143786 1.1138121,16.1897665 2.3408543,15.8739307 L2.3408543,6.13213272 C1.39695373,5.88829327 0.621357579,5.2188191 0.243928293,4.32212141 C-0.133500994,3.42542373 -0.0694636804,2.40437418 0.417061575,1.56157991 Z M4.47060051,18.1101868 C4.19387146,17.6247297 3.67756538,17.3243798 3.11767603,17.3231483 C2.55778667,17.3219245 2.04016158,17.6200073 1.76129519,18.1042462 C1.4824288,18.5884851 1.48507956,19.1846318 1.76824122,19.6663846 C2.20200073,20.4043548 3.15163548,20.6547703 3.89438995,20.227043 C4.63714442,19.7993157 4.89450627,18.8538315 4.47060051,18.1101868 Z M5.34590279,5.29956692 C4.94335736,5.70884693 4.44095569,5.99207492 3.90110793,6.13057652 L3.90110793,15.8754869 C4.35202123,15.9906455 4.77484997,16.206957 5.13838906,16.5135279 L5.34746305,16.7080527 L13.0348327,12.2822263 C12.7029535,11.5509244 12.6682782,10.7197655 12.938097,9.9634916 L13.0332724,9.72539334 L5.34590279,5.29956692 L5.34590279,5.29956692 Z M3.89954768,1.77011041 C3.41653931,1.48768483 2.81883883,1.48504096 2.33333791,1.76318244 C1.84783699,2.04132391 1.54897723,2.55760345 1.55020431,3.11603737 C1.55143896,3.6744713 1.85257171,4.18943523 2.33929405,4.46544493 C3.08487679,4.88824875 4.03282525,4.63155591 4.46166733,3.89073223 C4.8905094,3.14990855 4.63944119,2.20274237 3.89954768,1.77011041 Z" id="分享"></path>
            </g>
        </g>
    </g>
</svg>