<?xml version="1.0" encoding="UTF-8"?>
<svg width="72px" height="72px" viewBox="0 0 72 72" version="1.1" xmlns="http://www.w3.org/2000/svg" xmlns:xlink="http://www.w3.org/1999/xlink">
    <title>ic_server_disconnected</title>
    <g id="效果图" stroke="none" stroke-width="1" fill="none" fill-rule="evenodd">
        <g id="切图" transform="translate(-806.000000, -21.000000)" fill="#CECECE" fill-rule="nonzero">
            <path d="M832.007148,70.5595855 C833.12223,69.4196891 834.957827,69.4196891 836.090064,70.5595855 L836.090064,70.5595855 L841.716941,76.2417962 L847.360972,70.5595855 C848.476054,69.4196891 850.311651,69.4196891 851.443888,70.5595855 C852.576126,71.6994819 852.576126,73.5474957 851.461044,74.6701209 L851.461044,74.6701209 L845.817012,80.3523316 L851.461044,86.0345423 C852.593281,87.1571675 852.593281,89.0051813 851.461044,90.1450777 C850.345961,91.2849741 848.510365,91.2849741 847.378127,90.1450777 L847.378127,90.1450777 L841.734096,84.462867 L836.090064,90.1450777 C834.974982,91.2849741 833.139385,91.2849741 832.007148,90.1450777 C830.874911,89.0224525 830.874911,87.1744387 832.007148,86.0345423 L832.007148,86.0345423 L837.651179,80.3523316 L832.007148,74.6701209 C830.874911,73.5474957 830.874911,71.6994819 832.007148,70.5595855 Z M871.08649,26 C874.894925,26 878,29.1088083 878,32.9602763 L878,32.9602763 L878,75.9309154 C878,79.7651123 874.894925,82.8911917 871.08649,82.8911917 L871.08649,82.8911917 L859.197999,82.8911917 C857.585418,82.8911917 856.298785,81.5785838 856.298785,79.9723661 C856.298785,78.3661485 857.602573,77.0708117 859.197999,77.0708117 L859.197999,77.0708117 L871.08649,77.0708117 C871.704074,77.0708117 872.218728,76.552677 872.218728,75.9309154 L872.218728,75.9309154 L872.218728,32.9602763 C872.218728,32.3385147 871.704074,31.82038 871.08649,31.82038 L871.08649,31.82038 L812.91351,31.82038 C812.295926,31.82038 811.781272,32.3385147 811.781272,32.9602763 L811.781272,32.9602763 L811.781272,75.9309154 C811.781272,76.552677 812.295926,77.0708117 812.91351,77.0708117 L812.91351,77.0708117 L824.802001,77.0708117 C826.397427,77.0708117 827.68406,78.3661485 827.68406,79.9723661 C827.68406,81.5958549 826.397427,82.8911917 824.802001,82.8911917 L824.802001,82.8911917 L812.91351,82.8911917 C809.105075,82.8911917 806,79.7651123 806,75.9309154 L806,75.9309154 L806,32.9602763 C806,29.1260794 809.105075,26 812.91351,26 L812.91351,26 Z" id="ic_server_disconnected"></path>
        </g>
    </g>
</svg>