<?xml version="1.0" encoding="UTF-8"?>
<svg width="24px" height="24px" viewBox="0 0 24 24" version="1.1" xmlns="http://www.w3.org/2000/svg" xmlns:xlink="http://www.w3.org/1999/xlink">
    <title>ic_screen_projection </title>
    <g id="效果图" stroke="none" stroke-width="1" fill="none" fill-rule="evenodd">
        <g id="切图" transform="translate(-237.000000, -161.000000)" fill="#FFFFFF" fill-rule="nonzero">
            <g id="ic_screen_projection-" transform="translate(240.000000, 164.000000)">
                <path d="M9.6459347,13.057384 C9.68827707,13.0932115 9.72756523,13.1324996 9.76339266,13.174842 L12.303657,16.1770326 C12.4820269,16.3878377 12.455733,16.7033264 12.244928,16.8816963 C12.1546502,16.9580837 12.0402193,17 11.9219606,17 L6.07803938,17 C5.801897,17 5.57803938,16.7761424 5.57803938,16.5 C5.57803938,16.3817413 5.61995567,16.2673104 5.69634304,16.1770326 L8.23660734,13.174842 C8.59334722,12.7532319 9.22432458,12.7006442 9.6459347,13.057384 Z M16,5.60440583e-13 C17.0543618,5.60440583e-13 17.9181651,0.815877791 17.9945143,1.85073766 L18,2 L18,13.0537196 C18,14.1080814 17.1841222,14.9718847 16.1492623,15.0482339 L16,15.0537196 L15.197876,15.0537196 C14.6455912,15.0537196 14.197876,14.6060043 14.197876,14.0537196 C14.197876,13.5408838 14.5839162,13.1182124 15.0812549,13.0604473 L15.197876,13.0537196 L16,13.0537196 L16,2 L2,2 L2,13.0537196 L3.38763479,13.0537196 C3.93991954,13.0537196 4.38763479,13.5014348 4.38763479,14.0537196 C4.38763479,14.5665554 4.0015946,14.9892268 3.50425591,15.0469919 L3.38763479,15.0537196 L2,15.0537196 C0.945638205,15.0537196 0.0818348781,14.2378418 0.00548573643,13.2029819 L0,13.0537196 L0,2 C0,0.945638205 0.815877791,0.0818348781 1.85073766,0.00548573643 L2,5.60440583e-13 L16,5.60440583e-13 Z" id="形状结合"></path>
            </g>
        </g>
    </g>
</svg>