<?xml version="1.0" encoding="UTF-8"?>
<svg width="32px" height="32px" viewBox="0 0 32 32" version="1.1" xmlns="http://www.w3.org/2000/svg" xmlns:xlink="http://www.w3.org/1999/xlink">
    <title>ic_tips_warning</title>
    <g id="效果图" stroke="none" stroke-width="1" fill="none" fill-rule="evenodd">
        <g id="切图" transform="translate(-478.000000, -536.000000)">
            <g id="ic_tips_warning" transform="translate(478.000000, 536.000000)">
                <path d="M16,2.8 C19.6453402,2.8 22.9450504,4.2775898 25.3335742,6.66611354 C27.722573,9.05511234 29.2,12.3554141 29.2,16 C29.2,19.644226 27.7221861,22.9442693 25.3332277,25.3332277 C22.9442693,27.7221861 19.644226,29.2 16,29.2 C12.355774,29.2 9.05573067,27.7221861 6.66677229,25.3332277 C4.27781391,22.9442693 2.8,19.644226 2.8,16 C2.8,12.3554141 4.27742704,9.05511234 6.66642585,6.66611354 C9.05494959,4.2775898 12.3546598,2.8 16,2.8 Z" id="路径" stroke="#FFFFFF" stroke-width="2.4" fill="#FC2864" fill-rule="nonzero"></path>
                <rect id="矩形" fill="#FFFFFF" x="14.8" y="8.8" width="2.4" height="9.6" rx="1.2"></rect>
                <path d="M16.0926651,23.0388214 C16.9210922,23.0388214 17.5926651,22.3672485 17.5926651,21.5388214 C17.5926651,20.7103943 16.9210922,20.0388214 16.0926651,20.0388214 C15.264238,20.0388214 14.5926651,20.7103943 14.5926651,21.5388214 C14.5926651,22.3672485 15.264238,23.0388214 16.0926651,23.0388214 Z" id="椭圆形" fill="#FFFFFF"></path>
            </g>
        </g>
    </g>
</svg>