<?xml version="1.0" encoding="UTF-8"?>
<svg width="24px" height="24px" viewBox="0 0 24 24" version="1.1" xmlns="http://www.w3.org/2000/svg" xmlns:xlink="http://www.w3.org/1999/xlink">
    <title>ic_turn_off</title>
    <g id="效果图" stroke="none" stroke-width="1" fill="none" fill-rule="evenodd">
        <g id="切图" transform="translate(-30.000000, -161.000000)" fill="#FFFFFF">
            <g id="ic_turn_off" transform="translate(32.000000, 162.000000)">
                <path d="M6.39420793,3.71656485 L6.40548996,3.74664925 C6.59993241,4.26514495 6.39055376,4.84819018 5.91069161,5.12455583 C5.85607278,5.1560083 5.80668334,5.18554975 5.76252329,5.21318019 C3.50288799,6.62700804 2,9.13799487 2,12 C2,16.418278 5.581722,20 10,20 C14.418278,20 18,16.418278 18,12 C18,9.17974747 16.5406422,6.70034622 14.3358859,5.27575561 C14.2670305,5.23126514 14.1863607,5.18254158 14.0938763,5.12958491 C13.6112962,4.8532411 13.4002392,4.26777661 13.5955042,3.74708371 C13.7712208,3.27851849 14.2935145,3.04111778 14.7620797,3.21683439 C14.8013968,3.23157869 14.8396414,3.24903819 14.8765415,3.26907829 C14.9316861,3.29904292 14.9819095,3.32722366 15.027212,3.3536205 C18.0012059,5.08650737 20,8.30983199 20,12 C20,17.5228475 15.5228475,22 10,22 C4.4771525,22 0,17.5228475 0,12 C0,8.24000995 2.07514848,4.9646968 5.14264216,3.25686381 C5.14264216,3.25686381 5.14264216,3.25686381 5.14264216,3.25686381 C5.56711853,3.02053578 6.10280634,3.17306015 6.33913437,3.59753651 C6.36042998,3.63578624 6.37884055,3.67557231 6.39420793,3.71656485 Z" id="路径"></path>
                <rect id="矩形" x="9" y="0" width="2" height="9" rx="1"></rect>
            </g>
        </g>
    </g>
</svg>