<?xml version="1.0" encoding="UTF-8"?>
<svg width="24px" height="24px" viewBox="0 0 24 24" version="1.1" xmlns="http://www.w3.org/2000/svg" xmlns:xlink="http://www.w3.org/1999/xlink">
    <title>ic_update_disable</title>
    <g id="效果图" stroke="none" stroke-width="1" fill="none" fill-rule="evenodd" opacity="0.299999982">
        <g id="切图" transform="translate(-133.000000, -192.000000)" fill="#FFFFFF">
            <g id="ic_update_disable" transform="translate(135.000000, 194.000000)">
                <path d="M10,0.668365479 C13.1431803,0.668365479 16.6951705,3.89623278 17.3851095,6.12190546 L17.435,6.305 L17.4774493,6.32846297 C18.8514609,7.12925307 19.9250356,8.89660175 20.0055857,11.0272082 L20.0104408,11.284586 C20.0104408,14.0706066 17.3196245,16.5 15.0212708,16.5 C14.468986,16.5 14.0212708,16.0522847 14.0212708,15.5 C14.0212708,14.9871642 14.4073109,14.5644928 14.9046496,14.5067277 L15.0212708,14.5 C16.2580563,14.5 18.0104408,12.9178662 18.0104408,11.284586 C18.0104408,9.62107679 17.1618137,8.33508771 16.2932563,7.96591473 L16.1747709,7.92130636 C15.6381641,7.74542763 15.3535252,7.1604201 15.5463088,6.6296521 L15.5049988,6.75450254 C15.4913419,6.80201347 15.4868674,6.82896352 15.4856596,6.84350011 L15.4858468,6.8584361 C15.4446541,6.7308505 15.3632982,6.5507246 15.2489252,6.34339398 C14.9720064,5.84140727 14.5567374,5.27296929 14.0692365,4.75261409 C12.8514651,3.45277319 11.4229957,2.66836548 10,2.66836548 C8.57353503,2.66836548 7.30174089,3.37541907 6.30030823,4.5697587 C5.55472925,5.4589593 5.07143919,6.56829103 5.11058614,6.81321949 C5.1989134,7.36585156 4.81653777,7.88339222 4.26234186,7.96130757 C3.01232771,8.1370492 2.03534031,9.32365207 2.03534031,11.0787354 C2.03534031,12.8749421 3.42957085,14.3919951 5.0614923,14.4944837 L5.23719788,14.5 C5.78948263,14.5 6.23719788,14.9477153 6.23719788,15.5 C6.23719788,16.0522847 5.78948263,16.5 5.23719788,16.5 C2.40679165,16.5 0.0353403091,14.0249904 0.0353403091,11.0787354 C0.0353403091,8.76234788 1.25053685,6.9354596 2.99966534,6.24089275 L3.165,6.179 L3.19143298,6.04926807 C3.71346365,3.75084637 6.58526069,0.808826514 9.77187664,0.673231443 L10,0.668365479 Z" id="路径-5" fill-rule="nonzero"></path>
                <path d="M9.29289322,8.29051371 C9.68341751,7.89998941 10.3165825,7.89998941 10.7071068,8.29051371 L10.7071068,8.29051371 L13.5894424,11.1728493 C13.9551236,11.5385305 13.9691553,12.1269427 13.6213203,12.5096389 C13.6168037,12.5146082 13.6122319,12.519527 13.6076056,12.5243943 C13.2638786,12.8860304 12.6920689,12.9005487 12.3304327,12.5568218 L12.3304327,12.5568218 L10.9995729,11.2916205 L11,18 C11,18.5522847 10.5522847,19 10,19 C9.44771525,19 9,18.5522847 9,18 L8.99957288,11.4136205 L7.87867966,12.5347816 C7.48815536,12.9253059 6.85499039,12.9253059 6.46446609,12.5347816 C6.0739418,12.1442573 6.0739418,11.5110923 6.46446609,11.120568 L9.27757288,8.30662049 Z" id="形状结合"></path>
            </g>
        </g>
    </g>
</svg>