<?xml version="1.0" encoding="UTF-8"?>
<svg width="24px" height="24px" viewBox="0 0 24 24" version="1.1" xmlns="http://www.w3.org/2000/svg" xmlns:xlink="http://www.w3.org/1999/xlink">
    <title>ic_unlock_device </title>
    <g id="效果图" stroke="none" stroke-width="1" fill="none" fill-rule="evenodd">
        <g id="切图" transform="translate(-203.000000, -161.000000)" fill="#FFFFFF" fill-rule="nonzero">
            <g id="ic_unlock_device-" transform="translate(206.000000, 162.000000)">
                <path d="M9,-1.77946546e-12 C11.4826305,-1.77946546e-12 13.2850128,0.97815771 14.2306631,2.91184925 C14.3315164,3.11807697 14.4195155,3.3554337 14.4976094,3.6262855 L14.5543687,3.83574164 L12.6163047,4.32961188 L12.5431849,4.07260332 C12.5064146,3.95766342 12.4696051,3.8632919 12.4340007,3.79048695 C11.8465676,2.58928769 10.7607286,2 9,2 C6.27508904,2 5.02183317,3.43954897 5.033077,6.75081867 L5.035,6.924 L15,6.92485142 C16.6568542,6.92485142 18,8.26799717 18,9.92485142 L18,17.9248514 C18,19.5817057 16.6568542,20.9248514 15,20.9248514 L3,20.9248514 C1.34314575,20.9248514 0,19.5817057 0,17.9248514 L0,9.92485142 C0,8.26799717 1.34314575,6.92485142 3,6.92485142 L3.035,6.924 L3.03346858,6.78184759 C3.01985199,2.40692137 5.07882526,-1.77946546e-12 9,-1.77946546e-12 Z M15,8.92485142 L3,8.92485142 C2.48716416,8.92485142 2.06449284,9.31089161 2.00672773,9.80823029 L2,9.92485142 L2,17.9248514 C2,18.4376873 2.38604019,18.8603586 2.88337887,18.9181237 L3,18.9248514 L15,18.9248514 C15.5128358,18.9248514 15.9355072,18.5388112 15.9932723,18.0414725 L16,17.9248514 L16,9.92485142 C16,9.41201558 15.6139598,8.98934426 15.1166211,8.93157915 L15,8.92485142 Z M9,11.9248514 C9.55228475,11.9248514 10,12.3725667 10,12.9248514 L10,15.9248514 C10,16.4771362 9.55228475,16.9248514 9,16.9248514 C8.44771525,16.9248514 8,16.4771362 8,15.9248514 L8,12.9248514 C8,12.3725667 8.44771525,11.9248514 9,11.9248514 Z" id="形状结合"></path>
            </g>
        </g>
    </g>
</svg>