<?xml version="1.0" encoding="UTF-8"?>
<svg width="60px" height="60px" viewBox="0 0 60 60" version="1.1" xmlns="http://www.w3.org/2000/svg" xmlns:xlink="http://www.w3.org/1999/xlink">
    <title>ic_unknown_device</title>
    <defs>
        <linearGradient x1="9.45331132%" y1="99.8932341%" x2="50%" y2="55.8959406%" id="linearGradient-1">
            <stop stop-color="#EAF0FF" offset="0%"></stop>
            <stop stop-color="#D0DDFF" offset="100%"></stop>
        </linearGradient>
        <path d="M35.0080428,14 L34.9678376,21.0225675 C34.9615138,22.1271189 35.8518033,23.0276611 36.9563547,23.0339848 C36.9601713,23.0340066 36.9639881,23.0340176 36.9678048,23.0340176 L44,23.0340176 L44,23.0340176 L35.0080428,14 Z" id="path-2"></path>
        <filter x="-44.1%" y="-22.1%" width="188.3%" height="188.6%" filterUnits="objectBoundingBox" id="filter-3">
            <feOffset dx="0" dy="2" in="SourceAlpha" result="shadowOffsetOuter1"></feOffset>
            <feGaussianBlur stdDeviation="1" in="shadowOffsetOuter1" result="shadowBlurOuter1"></feGaussianBlur>
            <feColorMatrix values="0 0 0 0 0.533604128   0 0 0 0 0.576001815   0 0 0 0 0.687777533  0 0 0 0.469134991 0" type="matrix" in="shadowBlurOuter1"></feColorMatrix>
        </filter>
    </defs>
    <g id="页面-1" stroke="none" stroke-width="1" fill="none" fill-rule="evenodd">
        <g id="ic_unknown_device">
            <circle id="蒙版" fill="#252B37" cx="30" cy="30" r="30"></circle>
            <path d="M18,14 L35.0080428,14 L35.0080428,14 L44,23.0270958 L44,44 C44,45.1045695 43.1045695,46 42,46 L18,46 C16.8954305,46 16,45.1045695 16,44 L16,16 C16,14.8954305 16.8954305,14 18,14 Z" id="矩形" fill="#A9B4D1"></path>
            <path d="M30.418,34.148 C30.418,33.716 30.508,33.338 30.688,32.978 C30.85,32.654 31.084,32.348 31.408,32.078 C32.272,31.322 32.794,30.836 32.956,30.656 C33.388,30.08 33.622,29.342 33.622,28.442 C33.622,27.344 33.262,26.48 32.542,25.85 C31.822,25.202 30.868,24.896 29.698,24.896 C28.366,24.896 27.322,25.274 26.548,26.03 C25.8058354,26.7384299 25.4272093,27.6997562 25.38248,28.9139789 C25.3794966,28.9955123 25.7348337,29.3143835 26.3866062,29.3143835 C27.0383787,29.3143835 27.4310211,29.0358252 27.4330741,28.9744717 C27.4554009,28.3072365 27.5997679,27.7771376 27.88,27.398 C28.222,26.894 28.78,26.66 29.572,26.66 C30.184,26.66 30.67,26.822 31.012,27.164 C31.336,27.506 31.516,27.974 31.516,28.568 C31.516,29.018 31.354,29.45 31.03,29.846 L30.814,30.098 C29.644,31.142 28.942,31.898 28.708,32.384 C28.456,32.87 28.348,33.464 28.348,34.148 C28.5056116,34.316 28.8509432,34.4 29.3839951,34.4 C29.9170469,34.4 30.2617152,34.316 30.418,34.148 Z M29.374,38 C29.77,38 30.094,37.874 30.364,37.622 C30.634,37.37 30.778,37.028 30.778,36.632 C30.778,36.236 30.634,35.912 30.382,35.66 C30.112,35.408 29.77,35.282 29.374,35.282 C28.978,35.282 28.654,35.408 28.384,35.66 C28.114,35.912 27.988,36.236 27.988,36.632 C27.988,37.028 28.114,37.352 28.384,37.604 C28.654,37.856 28.978,38 29.374,38 Z" id="？" fill="#49506B" fill-rule="nonzero"></path>
            <g id="路径-10">
                <use fill="black" fill-opacity="1" filter="url(#filter-3)" xlink:href="#path-2"></use>
                <use fill="url(#linearGradient-1)" fill-rule="evenodd" xlink:href="#path-2"></use>
            </g>
        </g>
    </g>
</svg>