<?xml version="1.0" encoding="UTF-8"?>
<svg width="20px" height="21px" viewBox="0 0 20 21" version="1.1" xmlns="http://www.w3.org/2000/svg" xmlns:xlink="http://www.w3.org/1999/xlink">
    <title>ic_unlock_position</title>
    <g id="效果图" stroke="none" stroke-width="1" fill="none" fill-rule="evenodd" opacity="0.799999952">
        <g id="切图" transform="translate(-62.000000, -257.000000)" fill="#FFFFFF" fill-rule="nonzero">
            <g id="ic_unlock_position" transform="translate(64.000000, 259.000000)">
                <path d="M7.62244844,-6.30606678e-13 C10.1313469,-6.30606678e-13 11.8735094,1.1759455 12.6466756,3.4104148 L12.7257978,3.65386735 L10.8126052,4.23670037 C10.3451004,2.70208104 9.35661951,2 7.62244844,2 C5.30277862,2 4.16148582,3.34055301 4.05034104,6.44725921 L4.047,6.569 L13,6.56997299 C14.1045695,6.56997299 15,7.46540349 15,8.56997299 L15,14.569973 C15,15.6745425 14.1045695,16.569973 13,16.569973 L2,16.569973 C0.8954305,16.569973 0,15.6745425 0,14.569973 L0,8.56997299 C0,7.46540349 0.8954305,6.56997299 2,6.56997299 L2.046,6.569 L2.05094664,6.40365786 C2.19929537,2.27899521 4.10676943,-6.30606678e-13 7.62244844,-6.30606678e-13 Z M13,8.56997299 L2,8.56997299 L2,14.569973 L13,14.569973 L13,8.56997299 Z" id="形状结合"></path>
            </g>
        </g>
    </g>
</svg>