<?xml version="1.0" encoding="UTF-8"?>
<svg width="20px" height="20px" viewBox="0 0 20 20" version="1.1" xmlns="http://www.w3.org/2000/svg" xmlns:xlink="http://www.w3.org/1999/xlink">
    <title>ic_warning_white</title>
    <g id="效果图" stroke="none" stroke-width="1" fill="none" fill-rule="evenodd">
        <g id="切图" transform="translate(-65.000000, -297.000000)" fill="#FFFFFF" fill-rule="nonzero">
            <g id="ic_warning_white" transform="translate(65.000000, 297.000000)">
                <path d="M10,0 C15.5237883,0 20,4.47844539 20,10 C20,15.5215546 15.5215546,20 10,20 C4.47844539,20 0,15.5215546 0,10 C0,4.47844539 4.47621175,0 10,0 Z M10.2654049,12.7301937 C9.56778169,12.7301937 9,13.2979754 9,13.9955986 C9,14.6932218 9.56558099,15.2610035 10.2654049,15.2610035 C10.9652289,15.2610035 11.5308099,14.6932218 11.5308099,13.9955986 C11.5308099,13.2979754 10.9630282,12.7301937 10.2654049,12.7301937 Z M10.2654049,4 C9.56778169,4 9,4.56558099 9,5.26540493 L9,5.26540493 L9,10.3226232 C9,11.0202465 9.56558099,11.5880282 10.2654049,11.5880282 C10.9630282,11.5880282 11.5308099,11.0224472 11.5308099,10.3226232 L11.5308099,10.3226232 L11.5308099,5.26540493 C11.5308099,4.56778169 10.9652289,4 10.2654049,4 Z" id="形状结合"></path>
            </g>
        </g>
    </g>
</svg>