<?xml version="1.0" encoding="UTF-8"?>
<svg width="36px" height="36px" viewBox="0 0 36 36" version="1.1" xmlns="http://www.w3.org/2000/svg" xmlns:xlink="http://www.w3.org/1999/xlink">
    <title>ic_zip</title>
    <defs>
        <linearGradient x1="54.9433343%" y1="95.445208%" x2="54.9433343%" y2="8.07941801%" id="linearGradient-1">
            <stop stop-color="#B5C1E1" offset="0%"></stop>
            <stop stop-color="#CEDAF8" offset="100%"></stop>
        </linearGradient>
        <path d="M23.7123181,0.00529432297 L32.9957747,9.25575852 L25.1054688,9.30439852 C24.3407814,9.30911245 23.7170583,8.69303221 23.7123444,7.92834478 C23.7123269,7.9254997 23.7123181,7.92265457 23.7123181,7.91980944 L23.7123181,0.00529432297 L23.7123181,0.00529432297 Z" id="path-2"></path>
        <filter x="-75.4%" y="-53.7%" width="250.8%" height="250.3%" filterUnits="objectBoundingBox" id="filter-3">
            <feOffset dx="0" dy="2" in="SourceAlpha" result="shadowOffsetOuter1"></feOffset>
            <feGaussianBlur stdDeviation="2" in="shadowOffsetOuter1" result="shadowBlurOuter1"></feGaussianBlur>
            <feColorMatrix values="0 0 0 0 0.551646925   0 0 0 0 0.622728782   0 0 0 0 0.802802818  0 0 0 0.660431975 0" type="matrix" in="shadowBlurOuter1"></feColorMatrix>
        </filter>
    </defs>
    <g id="效果图" stroke="none" stroke-width="1" fill="none" fill-rule="evenodd">
        <g id="切图" transform="translate(-722.000000, -21.000000)">
            <g id="ic_zip" transform="translate(722.000000, 22.000000)">
                <path d="M4.38039013,0.00529432297 L23.7177539,0.00529432297 L23.7177539,0.00529432297 L32.9957747,9.26596737 L32.9957747,32.6206789 C32.9957747,33.3853809 32.3758613,34.0052943 31.6111594,34.0052943 L4.38039013,34.0052943 C3.61568817,34.0052943 2.99577475,33.3853809 2.99577475,32.6206789 L2.99577475,1.38990971 C2.99577475,0.625207746 3.61568817,0.00529432297 4.38039013,0.00529432297 Z" id="矩形" fill="url(#linearGradient-1)"></path>
                <g id="矩形">
                    <use fill="black" fill-opacity="1" filter="url(#filter-3)" xlink:href="#path-2"></use>
                    <use fill="#FFFFFF" fill-rule="evenodd" xlink:href="#path-2"></use>
                </g>
                <path d="M1.39032766,13.9968045 L29.6210969,13.9968045 C30.3857988,13.9968045 31.0057123,14.6167179 31.0057123,15.3814199 L31.0057123,27.6121891 C31.0057123,28.3768911 30.3857988,28.9968045 29.6210969,28.9968045 L1.39032766,28.9968045 C0.625625694,28.9968045 0.00571227074,28.3768911 0.00571227074,27.6121891 L0.00571227074,15.3814199 C0.00571227074,14.6167179 0.625625694,13.9968045 1.39032766,13.9968045 Z" id="矩形" fill="#1E94F0"></path>
                <path d="M13.1850962,25.8461538 L13.1850962,24.2641226 L9.10697115,24.2641226 L13.1440805,18.3695913 L13.1440805,17.3149038 L6.5171274,17.3149038 L6.5171274,18.9027945 L10.6069712,18.9027945 L6.5405649,24.7621695 L6.5405649,25.8461538 L13.1850962,25.8461538 Z M17.508143,25.8461538 L17.508143,17.3149038 L15.4573618,17.3149038 L15.4573618,25.8461538 L17.508143,25.8461538 Z M22.1944711,25.8461538 L22.1944711,22.9516226 L23.5421274,22.9516226 C24.0538461,22.9516226 24.5147836,22.8861929 24.9249399,22.7553335 C25.3350961,22.6244742 25.6827524,22.4389273 25.9679086,22.1986929 C26.2530649,21.9584585 26.4718149,21.6703726 26.6241586,21.3344351 C26.7765024,20.9984976 26.8526743,20.6234976 26.8526743,20.2094351 C26.8526743,19.7914663 26.7765024,19.4057242 26.6241586,19.0522085 C26.4718149,18.6986929 26.2530649,18.3930288 25.9679086,18.1352163 C25.6827524,17.8774038 25.3350961,17.676232 24.9249399,17.5317007 C24.5147836,17.3871695 24.0538461,17.3149038 23.5421274,17.3149038 L23.5421274,17.3149038 L20.1378305,17.3149038 L20.1378305,25.8461538 L22.1944711,25.8461538 Z M23.5421274,21.363732 L22.1944711,21.363732 L22.1944711,18.9027945 L23.5421274,18.9027945 C23.7569711,18.9027945 23.9415414,18.9389273 24.0958383,19.0111929 C24.2501352,19.0834585 24.3770883,19.1801382 24.4766977,19.301232 C24.5763071,19.4223257 24.6495493,19.5619742 24.6964243,19.7201773 C24.7432993,19.8783804 24.7667368,20.0453726 24.7667368,20.2211538 C24.7667368,20.3852163 24.7432993,20.5375601 24.6964243,20.6781851 C24.6495493,20.8188101 24.5763071,20.9399038 24.4766977,21.0414663 C24.3770883,21.1430288 24.2501352,21.2221304 24.0958383,21.278771 C23.9415414,21.3354117 23.7569711,21.363732 23.5421274,21.363732 L23.5421274,21.363732 Z" id="ZIP" fill="#FFFFFF" fill-rule="nonzero"></path>
            </g>
        </g>
    </g>
</svg>