<?xml version="1.0" encoding="UTF-8"?>
<svg width="90px" height="90px" viewBox="0 0 90 90" version="1.1" xmlns="http://www.w3.org/2000/svg" xmlns:xlink="http://www.w3.org/1999/xlink">
    <title>ic_logo</title>
    <defs>
        <rect id="path-1" x="0" y="0" width="90" height="90" rx="14"></rect>
    </defs>
    <g id="效果图" stroke="none" stroke-width="1" fill="none" fill-rule="evenodd">
        <g id="画板" transform="translate(-514.000000, -86.000000)">
            <g id="ic_logo" transform="translate(514.000000, 86.000000)">
                <g id="形状结合">
                    <mask id="mask-2" fill="white">
                        <use xlink:href="#path-1"></use>
                    </mask>
                    <use id="蒙版" fill="#00A5FF" xlink:href="#path-1"></use>
                    <path d="M124.772727,62.1818182 L124.772727,97.1590909 L-34.7727273,97.1590909 L-34.7727273,62.1818182 L-17.2573552,62.1816987 C-5.54406791,69.3529434 17.9851088,74.25 45.1022727,74.25 C72.2194366,74.25 95.7486134,69.3529434 107.461901,62.1816987 L124.772727,62.1818182 Z" fill="#2F1A45" mask="url(#mask-2)"></path>
                    <path d="M37.8683182,87.0782727 L37.8683182,82.7312727 L42.2423182,82.7312727 L42.2423182,87.0782727 L43.7948182,87.0782727 L43.7948182,76.9802727 L42.2423182,76.9802727 L42.2423182,81.2732727 L37.8683182,81.2732727 L37.8683182,76.9802727 L36.3158182,76.9802727 L36.3158182,87.0782727 L37.8683182,87.0782727 Z M47.6288182,87.0782727 L47.6288182,81.3677727 L51.3683182,87.0782727 L55.1213182,81.3677727 L55.1213182,87.0782727 L56.6873182,87.0782727 L56.6873182,76.9802727 L56.1338182,76.9802727 L51.3683182,84.2297727 L46.6163182,76.9802727 L46.0628182,76.9802727 L46.0628182,87.0782727 L47.6288182,87.0782727 Z" id="HM" fill="#FFFFFF" fill-rule="nonzero" mask="url(#mask-2)"></path>
                </g>
                <g id="编组" transform="translate(31.500000, 18.000000)" fill="#FFFFFF">
                    <path d="M7.80991736,14.0124242 C7.80991736,15.2374561 6.81653716,16.2323772 5.58842338,16.2323772 C4.36133687,16.2323772 3.36898396,15.2374561 3.36898396,14.0124242 C3.36898396,12.786365 4.36133687,11.7914439 5.58842338,11.7914439 C6.81653716,11.7914439 7.80991736,12.786365 7.80991736,14.0124242" id="Fill-152"></path>
                    <path d="M26.1861935,32.71346 C24.9058227,33.7117119 20.9712641,36.2931454 14.4687361,36.2931454 C8.17736594,36.2931454 4.01151452,33.6227692 2.75644142,32.6951483 L4.04455634,30.7802625 C4.07656561,30.8064222 8.24499843,33.9183731 14.4687361,33.9183731 C21.0130827,33.9183731 24.7075718,30.9529162 24.8464507,30.8263035 L26.1861935,32.71346 Z" id="Fill-154"></path>
                    <path d="M26.5023781,0.328187419 C25.3447768,1.38487878 22.4354119,1.77798239 20.873197,1.77798239 C20.7883167,1.77798239 20.7133303,1.77643677 20.6336574,1.77334552 L16.2323772,1.77334552 L16.8223737,2.37201708 C17.6680528,3.23138382 18.1726482,4.44366796 18.1726482,5.6162811 L18.1726482,5.96816808 L20.9705751,5.97228974 C22.2167018,5.97228974 26.0071559,5.97228974 28.4275476,3.96091818 L28.6363636,3.78677792 L26.8616875,0 L26.5023781,0.328187419 Z" id="Fill-156"></path>
                    <path d="M11.226093,1.22508508 L0,1.22508508 L0,5.31783814 L10.4563599,5.31783814 C10.7684978,5.31783814 12.3229755,5.42033815 12.3229755,7.44911367 L12.3229755,29.0957705 L16.5386485,29.0957705 L16.5386485,6.61099487 C16.5386485,4.12666374 15.1482632,1.22508508 11.226093,1.22508508" id="Fill-158"></path>
                </g>
                <path d="M28.0227273,29.6590909 L28.0227273,45.8042023 C28.0227273,55.2139524 35.6508369,62.8420621 45.0605871,62.8420621 C54.3762398,62.8420621 61.9457066,55.3657518 62.0961643,46.0859545 L62.0984469,45.8042023 L62.0984469,29.6590909 L66.189356,29.6590909 L66.189356,45.8042023 C66.189356,57.4732991 56.729684,66.9329712 45.0605871,66.9329712 C33.5081812,66.9329712 24.1212326,57.6615466 23.9346488,46.1536051 L23.9318182,45.8042023 L23.9318182,29.6590909 L28.0227273,29.6590909 Z" id="路径" fill="#FFFFFF" fill-rule="nonzero"></path>
            </g>
        </g>
    </g>
</svg>