<?xml version="1.0" encoding="UTF-8"?>
<svg width="108px" height="108px" viewBox="0 0 108 108" version="1.1" xmlns="http://www.w3.org/2000/svg" xmlns:xlink="http://www.w3.org/1999/xlink">
    <title>img_package</title>
    <defs>
        <filter x="0.0%" y="0.0%" width="100.0%" height="100.0%" filterUnits="objectBoundingBox" id="filter-1">
            <feGaussianBlur stdDeviation="0" in="SourceGraphic"></feGaussianBlur>
        </filter>
        <linearGradient x1="50%" y1="0%" x2="50%" y2="100%" id="linearGradient-2">
            <stop stop-color="#00BFFF" offset="0%"></stop>
            <stop stop-color="#009CFF" offset="100%"></stop>
        </linearGradient>
        <linearGradient x1="50%" y1="81.048802%" x2="50%" y2="0%" id="linearGradient-3">
            <stop stop-color="#8AE2FF" offset="0%"></stop>
            <stop stop-color="#74E3FB" offset="100%"></stop>
        </linearGradient>
    </defs>
    <g id="效果图" stroke="none" stroke-width="1" fill="none" fill-rule="evenodd">
        <g id="画板" transform="translate(-326.000000, -77.000000)">
            <g id="img_package" transform="translate(335.000000, 78.000000)">
                <ellipse id="椭圆形" fill="#3A3F4D" filter="url(#filter-1)" cx="45" cy="100.45" rx="36" ry="4.95"></ellipse>
                <path d="M0,18.9 L90,18.9 L90,83.5 C90,86.4823376 87.5823376,88.9 84.6,88.9 L5.4,88.9 C2.41766235,88.9 -1.41112581e-15,86.4823376 0,83.5 L0,18.9 L0,18.9 Z" id="矩形" fill="url(#linearGradient-2)"></path>
                <path d="M31.2108671,43.8497958 L31.2108671,57.2125039 C31.2108671,65.0006041 37.3844722,71.3141067 45,71.3141067 C52.5393725,71.3141067 58.6655166,65.1262428 58.7872856,57.4456997 L58.7891329,57.2125039 L58.7891329,43.8497958 L62.1,43.8497958 L62.1,57.2125039 C62.1,66.8705813 54.4440692,74.7 45,74.7 C35.6503715,74.7 28.0532974,67.0263868 27.9022909,57.5016917 L27.9,57.2125039 L27.9,43.8497958 L31.2108671,43.8497958 Z M37.2984568,59.6756783 C37.3243627,59.6973296 40.6979715,62.2729757 45.7349859,62.2729757 C51.0314765,62.2729757 54.0215118,59.8185773 54.1339097,59.7137847 L55.2181944,61.2757139 C54.1819609,62.1019299 50.9976318,64.2384863 45.7349859,64.2384863 C40.643235,64.2384863 37.2717153,62.0283153 36.2559557,61.260558 L37.2984568,59.6756783 Z M43.1106401,35.2139573 C46.2849429,35.2139573 47.4102138,37.6154861 47.4102138,39.6716745 L47.4102138,39.6716745 L47.4102138,58.2814869 L43.9983724,58.2814869 L43.9983724,40.3653543 C43.9983724,38.6862123 42.7402977,38.6013768 42.4876774,38.6013768 L34.0251041,38.6013768 L34.0251041,35.2139573 Z M38.547944,43.9593394 C39.5418848,43.9593394 40.3458503,44.7827986 40.3458503,45.7975622 C40.3458503,46.8114756 39.5418848,47.6349348 38.547944,47.6349348 C37.5548346,47.6349348 36.7517005,46.8114756 36.7517005,45.7975622 C36.7517005,44.7827986 37.5548346,43.9593394 38.547944,43.9593394 Z M55.7648873,34.2 L57.2011737,37.3341752 L57.032174,37.4783046 C55.0732952,39.1430421 52.0055933,39.1430421 50.9970742,39.1430421 L50.9970742,39.1430421 L48.7326474,39.1396307 L48.7326474,38.8483869 C48.7326474,37.8778587 48.3242667,36.8744962 47.6398392,36.1632303 L47.6398392,36.1632303 L47.1623414,35.6677321 L50.7243989,35.6677321 C50.7888801,35.6702906 50.8495682,35.6715699 50.9182639,35.6715699 C52.1826004,35.6715699 54.5372165,35.3462127 55.4740899,34.4716285 L55.4740899,34.4716285 L55.7648873,34.2 Z" id="形状结合" fill="#FFFFFF"></path>
                <path d="M0,19 L90,19 L80.2760982,3.39671196 C78.959741,1.2844426 76.6458342,0.00180673353 74.1569651,0.00477791177 L15.0296716,0.0753632754 C12.454782,0.0784371439 10.0775368,1.45631846 8.79499194,3.68906227 L0,19 L0,19 Z" id="路径-2" fill="url(#linearGradient-3)"></path>
            </g>
        </g>
    </g>
</svg>