<?xml version="1.0" encoding="UTF-8"?>
<svg width="600px" height="460px" viewBox="0 0 600 460" version="1.1" xmlns="http://www.w3.org/2000/svg" xmlns:xlink="http://www.w3.org/1999/xlink">
    <title> img_splash_screen</title>
    <defs>
        <linearGradient x1="36.4516584%" y1="68.2588132%" x2="54.6731788%" y2="31.1529226%" id="linearGradient-1">
            <stop stop-color="#96DAFF" offset="0%"></stop>
            <stop stop-color="#FFFFFF" offset="100%"></stop>
        </linearGradient>
        <linearGradient x1="36.4516584%" y1="68.6771983%" x2="55.0835548%" y2="30.1962785%" id="linearGradient-2">
            <stop stop-color="#46BEFF" offset="0%"></stop>
            <stop stop-color="#B9E1FF" offset="100%"></stop>
        </linearGradient>
        <linearGradient x1="100%" y1="46.4633261%" x2="52.5460173%" y2="53.5478179%" id="linearGradient-3">
            <stop stop-color="#3456E1" offset="0%"></stop>
            <stop stop-color="#0A3EC4" offset="100%"></stop>
        </linearGradient>
        <path d="M0.190333577,1 L1.49213975e-13,20.7071934 L36.4802804,41.8112707 C37.7470215,42.5440886 39.3128346,42.5266421 40.5629329,41.7657813 L77,19.5886972 L77,19.5886972 L77,1.56369707 L39.0593279,24.366779 L0.190333577,1 Z" id="path-4"></path>
        <path d="M0.190333577,1 L1.49213975e-13,20.7071934 L36.4802804,41.8112707 C37.7470215,42.5440886 39.3128346,42.5266421 40.5629329,41.7657813 L77,19.5886972 L77,19.5886972 L77,1.56369707 L39.0593279,24.366779 L0.190333577,1 Z" id="path-6"></path>
        <path d="M0.190333577,1 L1.49213975e-13,20.7071934 L36.4802804,41.8112707 C37.7470215,42.5440886 39.3128346,42.5266421 40.5629329,41.7657813 L77,19.5886972 L77,19.5886972 L77,1.56369707 L39.0593279,24.366779 L0.190333577,1 Z" id="path-8"></path>
        <linearGradient x1="86.216401%" y1="45.9997633%" x2="35.261029%" y2="60.7779762%" id="linearGradient-10">
            <stop stop-color="#38B2F4" offset="0%"></stop>
            <stop stop-color="#1A7AE6" offset="100%"></stop>
        </linearGradient>
        <path d="M0.190333577,1 L1.49213975e-13,20.7071934 L36.4802804,41.8112707 C37.7470215,42.5440886 39.3128346,42.5266421 40.5629329,41.7657813 L77,19.5886972 L77,19.5886972 L77,1.56369707 L39.0593279,24.366779 L0.190333577,1 Z" id="path-11"></path>
        <path d="M0.190333577,1 L1.49213975e-13,20.7071934 L36.4802804,41.8112707 C37.7470215,42.5440886 39.3128346,42.5266421 40.5629329,41.7657813 L77,19.5886972 L77,19.5886972 L77,1.56369707 L39.0593279,24.366779 L0.190333577,1 Z" id="path-13"></path>
        <path d="M0.190333577,1 L1.49213975e-13,20.7071934 L36.4802804,41.8112707 C37.7470215,42.5440886 39.3128346,42.5266421 40.5629329,41.7657813 L77,19.5886972 L77,19.5886972 L77,1.56369707 L39.0593279,24.366779 L0.190333577,1 Z" id="path-15"></path>
        <path d="M0.190333577,1 L1.49213975e-13,20.7071934 L36.4802804,41.8112707 C37.7470215,42.5440886 39.3128346,42.5266421 40.5629329,41.7657813 L77,19.5886972 L77,19.5886972 L77,1.56369707 L39.0593279,24.366779 L0.190333577,1 Z" id="path-17"></path>
        <path d="M0.190333577,1 L1.49213975e-13,20.7071934 L36.4802804,41.8112707 C37.7470215,42.5440886 39.3128346,42.5266421 40.5629329,41.7657813 L77,19.5886972 L77,19.5886972 L77,1.56369707 L39.0593279,24.366779 L0.190333577,1 Z" id="path-19"></path>
        <path d="M0.190333577,1 L1.49213975e-13,20.7071934 L36.4802804,41.8112707 C37.7470215,42.5440886 39.3128346,42.5266421 40.5629329,41.7657813 L77,19.5886972 L77,19.5886972 L77,1.56369707 L39.0593279,24.366779 L0.190333577,1 Z" id="path-21"></path>
        <path d="M0.190333577,1 L1.49213975e-13,20.7071934 L36.4802804,41.8112707 C37.7470215,42.5440886 39.3128346,42.5266421 40.5629329,41.7657813 L77,19.5886972 L77,19.5886972 L77,1.56369707 L39.0593279,24.366779 L0.190333577,1 Z" id="path-23"></path>
        <path d="M0.190333577,1 L1.49213975e-13,20.7071934 L36.4802804,41.8112707 C37.7470215,42.5440886 39.3128346,42.5266421 40.5629329,41.7657813 L77,19.5886972 L77,19.5886972 L77,1.56369707 L39.0593279,24.366779 L0.190333577,1 Z" id="path-25"></path>
        <path d="M0.190333577,1 L1.49213975e-13,20.7071934 L36.4802804,41.8112707 C37.7470215,42.5440886 39.3128346,42.5266421 40.5629329,41.7657813 L77,19.5886972 L77,19.5886972 L77,1.56369707 L39.0593279,24.366779 L0.190333577,1 Z" id="path-27"></path>
        <path d="M0.190333577,1 L1.49213975e-13,20.7071934 L36.4802804,41.8112707 C37.7470215,42.5440886 39.3128346,42.5266421 40.5629329,41.7657813 L77,19.5886972 L77,19.5886972 L77,1.56369707 L39.0593279,24.366779 L0.190333577,1 Z" id="path-29"></path>
        <path d="M0.190333577,1 L1.49213975e-13,20.7071934 L36.4802804,41.8112707 C37.7470215,42.5440886 39.3128346,42.5266421 40.5629329,41.7657813 L77,19.5886972 L77,19.5886972 L77,1.56369707 L39.0593279,24.366779 L0.190333577,1 Z" id="path-31"></path>
        <path d="M0.190333577,1 L1.49213975e-13,20.7071934 L36.4802804,41.8112707 C37.7470215,42.5440886 39.3128346,42.5266421 40.5629329,41.7657813 L77,19.5886972 L77,19.5886972 L77,1.56369707 L39.0593279,24.366779 L0.190333577,1 Z" id="path-33"></path>
        <path d="M0.190333577,1 L1.49213975e-13,20.7071934 L36.4802804,41.8112707 C37.7470215,42.5440886 39.3128346,42.5266421 40.5629329,41.7657813 L77,19.5886972 L77,19.5886972 L77,1.56369707 L39.0593279,24.366779 L0.190333577,1 Z" id="path-35"></path>
        <path d="M0.190333577,1 L1.49213975e-13,20.7071934 L36.4802804,41.8112707 C37.7470215,42.5440886 39.3128346,42.5266421 40.5629329,41.7657813 L77,19.5886972 L77,19.5886972 L77,1.56369707 L39.0593279,24.366779 L0.190333577,1 Z" id="path-37"></path>
        <path d="M0.190333577,1 L1.49213975e-13,20.7071934 L36.4802804,41.8112707 C37.7470215,42.5440886 39.3128346,42.5266421 40.5629329,41.7657813 L77,19.5886972 L77,19.5886972 L77,1.56369707 L39.0593279,24.366779 L0.190333577,1 Z" id="path-39"></path>
        <linearGradient x1="100%" y1="45.7206246%" x2="52.5460173%" y2="54.2928597%" id="linearGradient-41">
            <stop stop-color="#3456E1" offset="0%"></stop>
            <stop stop-color="#0A3EC4" offset="100%"></stop>
        </linearGradient>
        <polygon id="path-42" points="1 1.75148784e-12 1 19.9082716 33.1623411 39 65.8166667 19.6325079 66 0.265015755 33.1623411 19.6325079"></polygon>
        <path d="M1,1 L1,5.72370724 C1,6.07802592 1.18749331,6.40589094 1.49286975,6.58557667 L31.0887361,24 L31.0887361,24 L62.4851393,6.58121424 C62.8028864,6.40492753 63,6.07015075 63,5.70677735 L63,2.04830012 L63,2.04830012 L31.9992754,14.8533771 L1,1 Z" id="path-44"></path>
        <linearGradient x1="86.216401%" y1="45.8405926%" x2="35.261029%" y2="61.2068352%" id="linearGradient-46">
            <stop stop-color="#38B2F4" offset="0%"></stop>
            <stop stop-color="#1A7AE6" offset="100%"></stop>
        </linearGradient>
        <polygon id="path-47" points="1 1.75148784e-12 1 19.9082716 33.1623411 39 65.8166667 19.6325079 66 0.265015755 33.1623411 19.6325079"></polygon>
        <path d="M1,1 L1,5.72370724 C1,6.07802592 1.18749331,6.40589094 1.49286975,6.58557667 L31.0887361,24 L31.0887361,24 L62.4851393,6.58121424 C62.8028864,6.40492753 63,6.07015075 63,5.70677735 L63,2.04830012 L63,2.04830012 L31.9992754,14.8533771 L1,1 Z" id="path-49"></path>
    </defs>
    <g id="效果图" stroke="none" stroke-width="1" fill="none" fill-rule="evenodd">
        <g id="画板" transform="translate(-80.000000, -341.000000)">
            <g id="-img_splash_screen" transform="translate(102.000000, 357.000000)">
                <polyline id="路径-34" stroke="#36E2E7" opacity="0.088506003" points="256 94 186 134.607239 236.038868 167"></polyline>
                <polyline id="路径-36" stroke="#36E2E7" opacity="0.110662483" points="306.476891 97 334.598786 115.32705 304 135.246113 342.036589 162 360 151.013682"></polyline>
                <line x1="411" y1="155" x2="445" y2="173" id="路径-37" stroke="#36E2E7" opacity="0.0973668716"></line>
                <polyline id="路径-38" stroke="#36E2E7" opacity="0.187036133" points="96 190 150.692198 160 195 186.978283"></polyline>
                <polyline id="路径-42" stroke="#36E2E7" opacity="0.187036133" points="517.47002 209 552 227.665102 498.608582 262.663967 466.509402 244.176321 429 268"></polyline>
                <polyline id="路径-43" stroke="#36E2E7" opacity="0.435083008" points="383.073181 308 342.845947 336 378.137994 361.33529 405.836179 341.112778 443 368.751019 362.021566 432 287 382.065747"></polyline>
                <polyline id="路径-44" stroke="#36E2E7" opacity="0.387606991" points="124.578864 331 86 355.081518 126.422131 385.910717 156.407505 366.264968 209.657682 401 234 384.331018"></polyline>
                <g id="编组-3" transform="translate(0.000000, 108.000000)">
                    <path d="M288.628368,54.7398747 L371.005,105.991 L378,101 L378,113.928239 L377.726484,114.02344 C377.734587,115.300316 377.39364,116.594736 376.669252,117.759058 C376.082115,118.702775 375.278698,119.493116 374.325474,120.064689 L290.22906,170.490724 C281.766529,175.565041 271.190408,175.537968 262.753966,170.420394 L177.800148,118.887115 C175.327256,117.38705 174.25443,114.456666 174.999338,111.801687 L175,100.799749 L189,100 L189,101.196 L264.2874,54.6997995 C271.750569,50.0905762 281.180416,50.1061016 288.628368,54.7398747 Z" id="形状结合" fill="#2C3686"></path>
                    <path d="M198.437108,40.2067463 L298.933163,46.4323868 C307.342218,46.9533202 314.80073,52.0111453 318.396017,59.6306916 L361.007149,149.937099 C362.65689,153.43342 361.159942,157.605127 357.663621,159.254868 C356.569619,159.771074 355.360516,159.994964 354.154215,159.904708 L257.478033,152.671316 C248.045742,151.965584 239.697713,146.304098 235.552782,137.801999 L192.384695,49.2554514 C190.85997,46.1279292 192.159294,42.3565375 195.286816,40.8318123 C196.265278,40.3547941 197.350644,40.1394409 198.437108,40.2067463 Z" id="矩形备份-13" fill="url(#linearGradient-1)" transform="translate(276.890352, 100.169663) rotate(-34.000000) translate(-276.890352, -100.169663) "></path>
                    <path d="M206.523007,48.0980146 L295.760648,55.5327107 C302.57374,56.1003329 308.586017,60.2098105 311.589051,66.3516509 L350.536058,146.006533 C351.506428,147.991143 350.684223,150.386628 348.699612,151.356997 C348.044231,151.677444 347.313693,151.812554 346.587052,151.747708 L260.508955,144.066013 C252.722592,143.37115 245.864827,138.659416 242.42368,131.640243 L203.580224,52.4082447 C202.850884,50.9205524 203.465649,49.1232922 204.953342,48.3939516 C205.440205,48.155267 205.982656,48.0529961 206.523007,48.0980146 Z" id="矩形备份-13" fill="url(#linearGradient-2)" transform="translate(277.451637, 100.018498) rotate(-34.000000) translate(-277.451637, -100.018498) "></path>
                    <polyline id="路径-3" stroke="#36E2E7" opacity="0.20949348" points="26.2886258 151 -3.12638804e-13 166.745795 53.3701948 200 103 168.761202 74.7456783 151"></polyline>
                </g>
                <g id="编组备份" opacity="0.463282686" transform="translate(243.000000, 0.000000)">
                    <g id="编组-10" transform="translate(0.000000, 45.000000)">
                        <g id="路径-30" transform="translate(0.000000, 21.000000)">
                            <mask id="mask-5" fill="white">
                                <use xlink:href="#path-4"></use>
                            </mask>
                            <use id="蒙版" fill="url(#linearGradient-3)" xlink:href="#path-4"></use>
                            <polygon fill="#166EE0" mask="url(#mask-5)" points="39 20.5131881 38.3877886 46 -3 21.9406267 -3 -2"></polygon>
                        </g>
                        <path d="M1.49656091,21.2400984 L37.9695975,0.819175757 C38.878804,0.310119289 39.9870381,0.309315083 40.8969824,0.817051458 L77.4971149,21.2394202 C77.9794001,21.5085287 78.152214,22.1176537 77.8831055,22.5999389 C77.7984887,22.7515857 77.6758396,22.8785832 77.5272318,22.96843 L40.987487,45.0599893 C40.0317628,45.6378105 38.8341774,45.6369063 37.8793267,45.0576426 L1.46641931,22.967618 C0.994230764,22.6811631 0.843663914,22.066161 1.13011884,21.5939725 C1.21966932,21.4463586 1.34591292,21.3244449 1.49656091,21.2400984 Z" id="路径-26" fill="#00278A"></path>
                        <polygon id="路径-28" fill="#FFFFFF" opacity="0.15" points="4 29 7 30.4354239 7 42 4 40.5974012"></polygon>
                        <polygon id="路径-28" fill="#FFFFFF" opacity="0.15" points="9 32 12 33.4354239 12 45 9 43.5974012"></polygon>
                        <polygon id="路径-28" fill="#FFFFFF" opacity="0.15" points="15 35 18 36.4354239 18 48 15 46.5974012"></polygon>
                        <polygon id="路径-29" fill="#D8D8D8" opacity="0.119167911" points="68 35.7524075 68 42 74 38.5207998 74 32"></polygon>
                        <path d="M33.8897081,17.861089 L44.5082212,18.5399421 C46.5935763,18.6732612 48.3165418,20.2169696 48.6772388,22.2752159 L48.8381723,23.1935509 C49.1854203,25.1750526 47.8605958,27.0628771 45.8790942,27.4101251 C45.629504,27.4538645 45.376031,27.4714402 45.1227926,27.4625669 L34.428736,27.0878516 C32.2877521,27.0128324 30.4926629,25.4469414 30.1276861,23.3359624 L29.9412942,22.2578963 C29.5871986,20.209853 30.9604145,18.2625347 33.0084578,17.908439 C33.2993342,17.8581481 33.5951176,17.8422555 33.8897081,17.861089 Z" id="矩形" fill="#0A3EC4" transform="translate(39.371178, 22.588316) rotate(-31.000000) translate(-39.371178, -22.588316) "></path>
                        <path d="M34.9983935,19.0408319 L44.7654186,19.7065528 C46.5246028,19.8264589 47.9423911,21.1947161 48.1247523,22.9485265 C48.2768232,24.4110286 47.2145088,25.7198986 45.7520068,25.8719695 C45.6320993,25.8844375 45.5114835,25.8887468 45.390992,25.8848678 L35.8939869,25.5791283 C33.9567966,25.5167638 32.3487054,24.062861 32.0920533,22.141735 C31.8913841,20.6396597 32.9463823,19.2593125 34.4484576,19.0586433 C34.6307098,19.0342954 34.8149478,19.0283282 34.9983935,19.0408319 Z" id="矩形" fill="#00EBFF" transform="translate(40.043777, 22.397727) rotate(-31.000000) translate(-40.043777, -22.397727) "></path>
                        <path d="M47.0127079,51.9924448 C48.0054364,51.9088811 49,51.2819441 49,50.3711416 C49,49.4603391 47.9092652,48.9260982 47,49.0082922 C46.0907348,49.0904861 45,49.8312479 45,50.6436655 C45,51.4560831 46.0199794,52.0760084 47.0127079,51.9924448 Z" id="椭圆形" stroke="#0F3AA6" fill="#00EBFF"></path>
                        <path d="M52.0127079,49.9924448 C53.0054364,49.9088811 54,49.2819441 54,48.3711416 C54,47.4603391 52.9092652,46.9260982 52,47.0082922 C51.0907348,47.0904861 50,47.8312479 50,48.6436655 C50,49.4560831 51.0199794,50.0760084 52.0127079,49.9924448 Z" id="椭圆形" stroke="#0F3AA6" fill="#00EBFF"></path>
                        <path d="M56.0127079,46.9924448 C57.0054364,46.9088811 58,46.2819441 58,45.3711416 C58,44.4603391 56.9092652,43.9260982 56,44.0082922 C55.0907348,44.0904861 54,44.8312479 54,45.6436655 C54,46.4560831 55.0199794,47.0760084 56.0127079,46.9924448 Z" id="椭圆形" stroke="#0F3AA6" fill="#00EBFF"></path>
                    </g>
                    <g id="编组-10" transform="translate(0.000000, 22.000000)">
                        <g id="路径-30" transform="translate(0.000000, 21.000000)">
                            <mask id="mask-7" fill="white">
                                <use xlink:href="#path-6"></use>
                            </mask>
                            <use id="蒙版" fill="url(#linearGradient-3)" xlink:href="#path-6"></use>
                            <polygon fill="#166EE0" mask="url(#mask-7)" points="39 20.5131881 38.3877886 46 -3 21.9406267 -3 -2"></polygon>
                        </g>
                        <path d="M1.49656091,21.2400984 L37.9695975,0.819175757 C38.878804,0.310119289 39.9870381,0.309315083 40.8969824,0.817051458 L77.4971149,21.2394202 C77.9794001,21.5085287 78.152214,22.1176537 77.8831055,22.5999389 C77.7984887,22.7515857 77.6758396,22.8785832 77.5272318,22.96843 L40.987487,45.0599893 C40.0317628,45.6378105 38.8341774,45.6369063 37.8793267,45.0576426 L1.46641931,22.967618 C0.994230764,22.6811631 0.843663914,22.066161 1.13011884,21.5939725 C1.21966932,21.4463586 1.34591292,21.3244449 1.49656091,21.2400984 Z" id="路径-26" fill="#00278A"></path>
                        <polygon id="路径-28" fill="#FFFFFF" opacity="0.15" points="4 29 7 30.4354239 7 42 4 40.5974012"></polygon>
                        <polygon id="路径-28" fill="#FFFFFF" opacity="0.15" points="9 32 12 33.4354239 12 45 9 43.5974012"></polygon>
                        <polygon id="路径-28" fill="#FFFFFF" opacity="0.15" points="15 35 18 36.4354239 18 48 15 46.5974012"></polygon>
                        <polygon id="路径-29" fill="#D8D8D8" opacity="0.119167911" points="68 35.7524075 68 42 74 38.5207998 74 32"></polygon>
                        <path d="M33.8897081,17.861089 L44.5082212,18.5399421 C46.5935763,18.6732612 48.3165418,20.2169696 48.6772388,22.2752159 L48.8381723,23.1935509 C49.1854203,25.1750526 47.8605958,27.0628771 45.8790942,27.4101251 C45.629504,27.4538645 45.376031,27.4714402 45.1227926,27.4625669 L34.428736,27.0878516 C32.2877521,27.0128324 30.4926629,25.4469414 30.1276861,23.3359624 L29.9412942,22.2578963 C29.5871986,20.209853 30.9604145,18.2625347 33.0084578,17.908439 C33.2993342,17.8581481 33.5951176,17.8422555 33.8897081,17.861089 Z" id="矩形" fill="#0A3EC4" transform="translate(39.371178, 22.588316) rotate(-31.000000) translate(-39.371178, -22.588316) "></path>
                        <path d="M34.9983935,19.0408319 L44.7654186,19.7065528 C46.5246028,19.8264589 47.9423911,21.1947161 48.1247523,22.9485265 C48.2768232,24.4110286 47.2145088,25.7198986 45.7520068,25.8719695 C45.6320993,25.8844375 45.5114835,25.8887468 45.390992,25.8848678 L35.8939869,25.5791283 C33.9567966,25.5167638 32.3487054,24.062861 32.0920533,22.141735 C31.8913841,20.6396597 32.9463823,19.2593125 34.4484576,19.0586433 C34.6307098,19.0342954 34.8149478,19.0283282 34.9983935,19.0408319 Z" id="矩形" fill="#00EBFF" transform="translate(40.043777, 22.397727) rotate(-31.000000) translate(-40.043777, -22.397727) "></path>
                        <path d="M47.0127079,51.9924448 C48.0054364,51.9088811 49,51.2819441 49,50.3711416 C49,49.4603391 47.9092652,48.9260982 47,49.0082922 C46.0907348,49.0904861 45,49.8312479 45,50.6436655 C45,51.4560831 46.0199794,52.0760084 47.0127079,51.9924448 Z" id="椭圆形" stroke="#0F3AA6" fill="#00EBFF"></path>
                        <path d="M52.0127079,49.9924448 C53.0054364,49.9088811 54,49.2819441 54,48.3711416 C54,47.4603391 52.9092652,46.9260982 52,47.0082922 C51.0907348,47.0904861 50,47.8312479 50,48.6436655 C50,49.4560831 51.0199794,50.0760084 52.0127079,49.9924448 Z" id="椭圆形" stroke="#0F3AA6" fill="#00EBFF"></path>
                        <path d="M56.0127079,46.9924448 C57.0054364,46.9088811 58,46.2819441 58,45.3711416 C58,44.4603391 56.9092652,43.9260982 56,44.0082922 C55.0907348,44.0904861 54,44.8312479 54,45.6436655 C54,46.4560831 55.0199794,47.0760084 56.0127079,46.9924448 Z" id="椭圆形" stroke="#0F3AA6" fill="#00EBFF"></path>
                    </g>
                    <g id="编组-10备份">
                        <g id="路径-30" transform="translate(0.000000, 21.000000)">
                            <mask id="mask-9" fill="white">
                                <use xlink:href="#path-8"></use>
                            </mask>
                            <use id="蒙版" fill="url(#linearGradient-3)" xlink:href="#path-8"></use>
                            <polygon fill="#166EE0" mask="url(#mask-9)" points="39 20.5131881 38.3877886 46 -3 21.9406267 -3 -2"></polygon>
                        </g>
                        <path d="M1.49656091,21.2400984 L37.9695975,0.819175757 C38.878804,0.310119289 39.9870381,0.309315083 40.8969824,0.817051458 L77.4971149,21.2394202 C77.9794001,21.5085287 78.152214,22.1176537 77.8831055,22.5999389 C77.7984887,22.7515857 77.6758396,22.8785832 77.5272318,22.96843 L40.987487,45.0599893 C40.0317628,45.6378105 38.8341774,45.6369063 37.8793267,45.0576426 L1.46641931,22.967618 C0.994230764,22.6811631 0.843663914,22.066161 1.13011884,21.5939725 C1.21966932,21.4463586 1.34591292,21.3244449 1.49656091,21.2400984 Z" id="路径-26" fill="url(#linearGradient-10)"></path>
                        <polygon id="路径-28" fill="#FFFFFF" opacity="0.15" points="4 29 7 30.4354239 7 42 4 40.5974012"></polygon>
                        <polygon id="路径-28" fill="#FFFFFF" opacity="0.15" points="9 32 12 33.4354239 12 45 9 43.5974012"></polygon>
                        <polygon id="路径-28" fill="#FFFFFF" opacity="0.15" points="15 35 18 36.4354239 18 48 15 46.5974012"></polygon>
                        <polygon id="路径-29" fill="#D8D8D8" opacity="0.119167911" points="68 35.7524075 68 42 74 38.5207998 74 32"></polygon>
                        <path d="M47.0127079,51.9924448 C48.0054364,51.9088811 49,51.2819441 49,50.3711416 C49,49.4603391 47.9092652,48.9260982 47,49.0082922 C46.0907348,49.0904861 45,49.8312479 45,50.6436655 C45,51.4560831 46.0199794,52.0760084 47.0127079,51.9924448 Z" id="椭圆形" stroke="#0F3AA6" fill="#00EBFF"></path>
                        <path d="M52.0127079,49.9924448 C53.0054364,49.9088811 54,49.2819441 54,48.3711416 C54,47.4603391 52.9092652,46.9260982 52,47.0082922 C51.0907348,47.0904861 50,47.8312479 50,48.6436655 C50,49.4560831 51.0199794,50.0760084 52.0127079,49.9924448 Z" id="椭圆形" stroke="#0F3AA6" fill="#00EBFF"></path>
                        <path d="M56.0127079,46.9924448 C57.0054364,46.9088811 58,46.2819441 58,45.3711416 C58,44.4603391 56.9092652,43.9260982 56,44.0082922 C55.0907348,44.0904861 54,44.8312479 54,45.6436655 C54,46.4560831 55.0199794,47.0760084 56.0127079,46.9924448 Z" id="椭圆形" stroke="#0F3AA6" fill="#00EBFF"></path>
                    </g>
                </g>
                <g id="编组备份-4" opacity="0.521373794" transform="translate(14.000000, 164.000000)">
                    <g id="编组-10" transform="translate(0.000000, 45.000000)">
                        <g id="路径-30" transform="translate(0.000000, 21.000000)">
                            <mask id="mask-12" fill="white">
                                <use xlink:href="#path-11"></use>
                            </mask>
                            <use id="蒙版" fill="url(#linearGradient-3)" xlink:href="#path-11"></use>
                            <polygon fill="#166EE0" mask="url(#mask-12)" points="39 20.5131881 38.3877886 46 -3 21.9406267 -3 -2"></polygon>
                        </g>
                        <path d="M1.49656091,21.2400984 L37.9695975,0.819175757 C38.878804,0.310119289 39.9870381,0.309315083 40.8969824,0.817051458 L77.4971149,21.2394202 C77.9794001,21.5085287 78.152214,22.1176537 77.8831055,22.5999389 C77.7984887,22.7515857 77.6758396,22.8785832 77.5272318,22.96843 L40.987487,45.0599893 C40.0317628,45.6378105 38.8341774,45.6369063 37.8793267,45.0576426 L1.46641931,22.967618 C0.994230764,22.6811631 0.843663914,22.066161 1.13011884,21.5939725 C1.21966932,21.4463586 1.34591292,21.3244449 1.49656091,21.2400984 Z" id="路径-26" fill="#00278A"></path>
                        <polygon id="路径-28" fill="#FFFFFF" opacity="0.15" points="4 29 7 30.4354239 7 42 4 40.5974012"></polygon>
                        <polygon id="路径-28" fill="#FFFFFF" opacity="0.15" points="9 32 12 33.4354239 12 45 9 43.5974012"></polygon>
                        <polygon id="路径-28" fill="#FFFFFF" opacity="0.15" points="15 35 18 36.4354239 18 48 15 46.5974012"></polygon>
                        <polygon id="路径-29" fill="#D8D8D8" opacity="0.119167911" points="68 35.7524075 68 42 74 38.5207998 74 32"></polygon>
                        <path d="M33.8897081,17.861089 L44.5082212,18.5399421 C46.5935763,18.6732612 48.3165418,20.2169696 48.6772388,22.2752159 L48.8381723,23.1935509 C49.1854203,25.1750526 47.8605958,27.0628771 45.8790942,27.4101251 C45.629504,27.4538645 45.376031,27.4714402 45.1227926,27.4625669 L34.428736,27.0878516 C32.2877521,27.0128324 30.4926629,25.4469414 30.1276861,23.3359624 L29.9412942,22.2578963 C29.5871986,20.209853 30.9604145,18.2625347 33.0084578,17.908439 C33.2993342,17.8581481 33.5951176,17.8422555 33.8897081,17.861089 Z" id="矩形" fill="#0A3EC4" transform="translate(39.371178, 22.588316) rotate(-31.000000) translate(-39.371178, -22.588316) "></path>
                        <path d="M34.9983935,19.0408319 L44.7654186,19.7065528 C46.5246028,19.8264589 47.9423911,21.1947161 48.1247523,22.9485265 C48.2768232,24.4110286 47.2145088,25.7198986 45.7520068,25.8719695 C45.6320993,25.8844375 45.5114835,25.8887468 45.390992,25.8848678 L35.8939869,25.5791283 C33.9567966,25.5167638 32.3487054,24.062861 32.0920533,22.141735 C31.8913841,20.6396597 32.9463823,19.2593125 34.4484576,19.0586433 C34.6307098,19.0342954 34.8149478,19.0283282 34.9983935,19.0408319 Z" id="矩形" fill="#00EBFF" transform="translate(40.043777, 22.397727) rotate(-31.000000) translate(-40.043777, -22.397727) "></path>
                        <path d="M47.0127079,51.9924448 C48.0054364,51.9088811 49,51.2819441 49,50.3711416 C49,49.4603391 47.9092652,48.9260982 47,49.0082922 C46.0907348,49.0904861 45,49.8312479 45,50.6436655 C45,51.4560831 46.0199794,52.0760084 47.0127079,51.9924448 Z" id="椭圆形" stroke="#0F3AA6" fill="#00EBFF"></path>
                        <path d="M52.0127079,49.9924448 C53.0054364,49.9088811 54,49.2819441 54,48.3711416 C54,47.4603391 52.9092652,46.9260982 52,47.0082922 C51.0907348,47.0904861 50,47.8312479 50,48.6436655 C50,49.4560831 51.0199794,50.0760084 52.0127079,49.9924448 Z" id="椭圆形" stroke="#0F3AA6" fill="#00EBFF"></path>
                        <path d="M56.0127079,46.9924448 C57.0054364,46.9088811 58,46.2819441 58,45.3711416 C58,44.4603391 56.9092652,43.9260982 56,44.0082922 C55.0907348,44.0904861 54,44.8312479 54,45.6436655 C54,46.4560831 55.0199794,47.0760084 56.0127079,46.9924448 Z" id="椭圆形" stroke="#0F3AA6" fill="#00EBFF"></path>
                    </g>
                    <g id="编组-10" transform="translate(0.000000, 22.000000)">
                        <g id="路径-30" transform="translate(0.000000, 21.000000)">
                            <mask id="mask-14" fill="white">
                                <use xlink:href="#path-13"></use>
                            </mask>
                            <use id="蒙版" fill="url(#linearGradient-3)" xlink:href="#path-13"></use>
                            <polygon fill="#166EE0" mask="url(#mask-14)" points="39 20.5131881 38.3877886 46 -3 21.9406267 -3 -2"></polygon>
                        </g>
                        <path d="M1.49656091,21.2400984 L37.9695975,0.819175757 C38.878804,0.310119289 39.9870381,0.309315083 40.8969824,0.817051458 L77.4971149,21.2394202 C77.9794001,21.5085287 78.152214,22.1176537 77.8831055,22.5999389 C77.7984887,22.7515857 77.6758396,22.8785832 77.5272318,22.96843 L40.987487,45.0599893 C40.0317628,45.6378105 38.8341774,45.6369063 37.8793267,45.0576426 L1.46641931,22.967618 C0.994230764,22.6811631 0.843663914,22.066161 1.13011884,21.5939725 C1.21966932,21.4463586 1.34591292,21.3244449 1.49656091,21.2400984 Z" id="路径-26" fill="#00278A"></path>
                        <polygon id="路径-28" fill="#FFFFFF" opacity="0.15" points="4 29 7 30.4354239 7 42 4 40.5974012"></polygon>
                        <polygon id="路径-28" fill="#FFFFFF" opacity="0.15" points="9 32 12 33.4354239 12 45 9 43.5974012"></polygon>
                        <polygon id="路径-28" fill="#FFFFFF" opacity="0.15" points="15 35 18 36.4354239 18 48 15 46.5974012"></polygon>
                        <polygon id="路径-29" fill="#D8D8D8" opacity="0.119167911" points="68 35.7524075 68 42 74 38.5207998 74 32"></polygon>
                        <path d="M33.8897081,17.861089 L44.5082212,18.5399421 C46.5935763,18.6732612 48.3165418,20.2169696 48.6772388,22.2752159 L48.8381723,23.1935509 C49.1854203,25.1750526 47.8605958,27.0628771 45.8790942,27.4101251 C45.629504,27.4538645 45.376031,27.4714402 45.1227926,27.4625669 L34.428736,27.0878516 C32.2877521,27.0128324 30.4926629,25.4469414 30.1276861,23.3359624 L29.9412942,22.2578963 C29.5871986,20.209853 30.9604145,18.2625347 33.0084578,17.908439 C33.2993342,17.8581481 33.5951176,17.8422555 33.8897081,17.861089 Z" id="矩形" fill="#0A3EC4" transform="translate(39.371178, 22.588316) rotate(-31.000000) translate(-39.371178, -22.588316) "></path>
                        <path d="M34.9983935,19.0408319 L44.7654186,19.7065528 C46.5246028,19.8264589 47.9423911,21.1947161 48.1247523,22.9485265 C48.2768232,24.4110286 47.2145088,25.7198986 45.7520068,25.8719695 C45.6320993,25.8844375 45.5114835,25.8887468 45.390992,25.8848678 L35.8939869,25.5791283 C33.9567966,25.5167638 32.3487054,24.062861 32.0920533,22.141735 C31.8913841,20.6396597 32.9463823,19.2593125 34.4484576,19.0586433 C34.6307098,19.0342954 34.8149478,19.0283282 34.9983935,19.0408319 Z" id="矩形" fill="#00EBFF" transform="translate(40.043777, 22.397727) rotate(-31.000000) translate(-40.043777, -22.397727) "></path>
                        <path d="M47.0127079,51.9924448 C48.0054364,51.9088811 49,51.2819441 49,50.3711416 C49,49.4603391 47.9092652,48.9260982 47,49.0082922 C46.0907348,49.0904861 45,49.8312479 45,50.6436655 C45,51.4560831 46.0199794,52.0760084 47.0127079,51.9924448 Z" id="椭圆形" stroke="#0F3AA6" fill="#00EBFF"></path>
                        <path d="M52.0127079,49.9924448 C53.0054364,49.9088811 54,49.2819441 54,48.3711416 C54,47.4603391 52.9092652,46.9260982 52,47.0082922 C51.0907348,47.0904861 50,47.8312479 50,48.6436655 C50,49.4560831 51.0199794,50.0760084 52.0127079,49.9924448 Z" id="椭圆形" stroke="#0F3AA6" fill="#00EBFF"></path>
                        <path d="M56.0127079,46.9924448 C57.0054364,46.9088811 58,46.2819441 58,45.3711416 C58,44.4603391 56.9092652,43.9260982 56,44.0082922 C55.0907348,44.0904861 54,44.8312479 54,45.6436655 C54,46.4560831 55.0199794,47.0760084 56.0127079,46.9924448 Z" id="椭圆形" stroke="#0F3AA6" fill="#00EBFF"></path>
                    </g>
                    <g id="编组-10备份">
                        <g id="路径-30" transform="translate(0.000000, 21.000000)">
                            <mask id="mask-16" fill="white">
                                <use xlink:href="#path-15"></use>
                            </mask>
                            <use id="蒙版" fill="url(#linearGradient-3)" xlink:href="#path-15"></use>
                            <polygon fill="#166EE0" mask="url(#mask-16)" points="39 20.5131881 38.3877886 46 -3 21.9406267 -3 -2"></polygon>
                        </g>
                        <path d="M1.49656091,21.2400984 L37.9695975,0.819175757 C38.878804,0.310119289 39.9870381,0.309315083 40.8969824,0.817051458 L77.4971149,21.2394202 C77.9794001,21.5085287 78.152214,22.1176537 77.8831055,22.5999389 C77.7984887,22.7515857 77.6758396,22.8785832 77.5272318,22.96843 L40.987487,45.0599893 C40.0317628,45.6378105 38.8341774,45.6369063 37.8793267,45.0576426 L1.46641931,22.967618 C0.994230764,22.6811631 0.843663914,22.066161 1.13011884,21.5939725 C1.21966932,21.4463586 1.34591292,21.3244449 1.49656091,21.2400984 Z" id="路径-26" fill="url(#linearGradient-10)"></path>
                        <polygon id="路径-28" fill="#FFFFFF" opacity="0.15" points="4 29 7 30.4354239 7 42 4 40.5974012"></polygon>
                        <polygon id="路径-28" fill="#FFFFFF" opacity="0.15" points="9 32 12 33.4354239 12 45 9 43.5974012"></polygon>
                        <polygon id="路径-28" fill="#FFFFFF" opacity="0.15" points="15 35 18 36.4354239 18 48 15 46.5974012"></polygon>
                        <polygon id="路径-29" fill="#D8D8D8" opacity="0.119167911" points="68 35.7524075 68 42 74 38.5207998 74 32"></polygon>
                        <path d="M47.0127079,51.9924448 C48.0054364,51.9088811 49,51.2819441 49,50.3711416 C49,49.4603391 47.9092652,48.9260982 47,49.0082922 C46.0907348,49.0904861 45,49.8312479 45,50.6436655 C45,51.4560831 46.0199794,52.0760084 47.0127079,51.9924448 Z" id="椭圆形" stroke="#0F3AA6" fill="#00EBFF"></path>
                        <path d="M52.0127079,49.9924448 C53.0054364,49.9088811 54,49.2819441 54,48.3711416 C54,47.4603391 52.9092652,46.9260982 52,47.0082922 C51.0907348,47.0904861 50,47.8312479 50,48.6436655 C50,49.4560831 51.0199794,50.0760084 52.0127079,49.9924448 Z" id="椭圆形" stroke="#0F3AA6" fill="#00EBFF"></path>
                        <path d="M56.0127079,46.9924448 C57.0054364,46.9088811 58,46.2819441 58,45.3711416 C58,44.4603391 56.9092652,43.9260982 56,44.0082922 C55.0907348,44.0904861 54,44.8312479 54,45.6436655 C54,46.4560831 55.0199794,47.0760084 56.0127079,46.9924448 Z" id="椭圆形" stroke="#0F3AA6" fill="#00EBFF"></path>
                    </g>
                </g>
                <g id="编组备份-5" transform="translate(108.000000, 234.000000)">
                    <g id="编组-10" transform="translate(0.000000, 45.000000)">
                        <g id="路径-30" transform="translate(0.000000, 21.000000)">
                            <mask id="mask-18" fill="white">
                                <use xlink:href="#path-17"></use>
                            </mask>
                            <use id="蒙版" fill="url(#linearGradient-3)" xlink:href="#path-17"></use>
                            <polygon fill="#166EE0" mask="url(#mask-18)" points="39 20.5131881 38.3877886 46 -3 21.9406267 -3 -2"></polygon>
                        </g>
                        <path d="M1.49656091,21.2400984 L37.9695975,0.819175757 C38.878804,0.310119289 39.9870381,0.309315083 40.8969824,0.817051458 L77.4971149,21.2394202 C77.9794001,21.5085287 78.152214,22.1176537 77.8831055,22.5999389 C77.7984887,22.7515857 77.6758396,22.8785832 77.5272318,22.96843 L40.987487,45.0599893 C40.0317628,45.6378105 38.8341774,45.6369063 37.8793267,45.0576426 L1.46641931,22.967618 C0.994230764,22.6811631 0.843663914,22.066161 1.13011884,21.5939725 C1.21966932,21.4463586 1.34591292,21.3244449 1.49656091,21.2400984 Z" id="路径-26" fill="#00278A"></path>
                        <polygon id="路径-28" fill="#FFFFFF" opacity="0.15" points="4 29 7 30.4354239 7 42 4 40.5974012"></polygon>
                        <polygon id="路径-28" fill="#FFFFFF" opacity="0.15" points="9 32 12 33.4354239 12 45 9 43.5974012"></polygon>
                        <polygon id="路径-28" fill="#FFFFFF" opacity="0.15" points="15 35 18 36.4354239 18 48 15 46.5974012"></polygon>
                        <polygon id="路径-29" fill="#D8D8D8" opacity="0.119167911" points="68 35.7524075 68 42 74 38.5207998 74 32"></polygon>
                        <path d="M33.8897081,17.861089 L44.5082212,18.5399421 C46.5935763,18.6732612 48.3165418,20.2169696 48.6772388,22.2752159 L48.8381723,23.1935509 C49.1854203,25.1750526 47.8605958,27.0628771 45.8790942,27.4101251 C45.629504,27.4538645 45.376031,27.4714402 45.1227926,27.4625669 L34.428736,27.0878516 C32.2877521,27.0128324 30.4926629,25.4469414 30.1276861,23.3359624 L29.9412942,22.2578963 C29.5871986,20.209853 30.9604145,18.2625347 33.0084578,17.908439 C33.2993342,17.8581481 33.5951176,17.8422555 33.8897081,17.861089 Z" id="矩形" fill="#0A3EC4" transform="translate(39.371178, 22.588316) rotate(-31.000000) translate(-39.371178, -22.588316) "></path>
                        <path d="M34.9983935,19.0408319 L44.7654186,19.7065528 C46.5246028,19.8264589 47.9423911,21.1947161 48.1247523,22.9485265 C48.2768232,24.4110286 47.2145088,25.7198986 45.7520068,25.8719695 C45.6320993,25.8844375 45.5114835,25.8887468 45.390992,25.8848678 L35.8939869,25.5791283 C33.9567966,25.5167638 32.3487054,24.062861 32.0920533,22.141735 C31.8913841,20.6396597 32.9463823,19.2593125 34.4484576,19.0586433 C34.6307098,19.0342954 34.8149478,19.0283282 34.9983935,19.0408319 Z" id="矩形" fill="#00EBFF" transform="translate(40.043777, 22.397727) rotate(-31.000000) translate(-40.043777, -22.397727) "></path>
                        <path d="M47.0127079,51.9924448 C48.0054364,51.9088811 49,51.2819441 49,50.3711416 C49,49.4603391 47.9092652,48.9260982 47,49.0082922 C46.0907348,49.0904861 45,49.8312479 45,50.6436655 C45,51.4560831 46.0199794,52.0760084 47.0127079,51.9924448 Z" id="椭圆形" stroke="#0F3AA6" fill="#00EBFF"></path>
                        <path d="M52.0127079,49.9924448 C53.0054364,49.9088811 54,49.2819441 54,48.3711416 C54,47.4603391 52.9092652,46.9260982 52,47.0082922 C51.0907348,47.0904861 50,47.8312479 50,48.6436655 C50,49.4560831 51.0199794,50.0760084 52.0127079,49.9924448 Z" id="椭圆形" stroke="#0F3AA6" fill="#00EBFF"></path>
                        <path d="M56.0127079,46.9924448 C57.0054364,46.9088811 58,46.2819441 58,45.3711416 C58,44.4603391 56.9092652,43.9260982 56,44.0082922 C55.0907348,44.0904861 54,44.8312479 54,45.6436655 C54,46.4560831 55.0199794,47.0760084 56.0127079,46.9924448 Z" id="椭圆形" stroke="#0F3AA6" fill="#00EBFF"></path>
                    </g>
                    <g id="编组-10" transform="translate(0.000000, 22.000000)">
                        <g id="路径-30" transform="translate(0.000000, 21.000000)">
                            <mask id="mask-20" fill="white">
                                <use xlink:href="#path-19"></use>
                            </mask>
                            <use id="蒙版" fill="url(#linearGradient-3)" xlink:href="#path-19"></use>
                            <polygon fill="#166EE0" mask="url(#mask-20)" points="39 20.5131881 38.3877886 46 -3 21.9406267 -3 -2"></polygon>
                        </g>
                        <path d="M1.49656091,21.2400984 L37.9695975,0.819175757 C38.878804,0.310119289 39.9870381,0.309315083 40.8969824,0.817051458 L77.4971149,21.2394202 C77.9794001,21.5085287 78.152214,22.1176537 77.8831055,22.5999389 C77.7984887,22.7515857 77.6758396,22.8785832 77.5272318,22.96843 L40.987487,45.0599893 C40.0317628,45.6378105 38.8341774,45.6369063 37.8793267,45.0576426 L1.46641931,22.967618 C0.994230764,22.6811631 0.843663914,22.066161 1.13011884,21.5939725 C1.21966932,21.4463586 1.34591292,21.3244449 1.49656091,21.2400984 Z" id="路径-26" fill="#00278A"></path>
                        <polygon id="路径-28" fill="#FFFFFF" opacity="0.15" points="4 29 7 30.4354239 7 42 4 40.5974012"></polygon>
                        <polygon id="路径-28" fill="#FFFFFF" opacity="0.15" points="9 32 12 33.4354239 12 45 9 43.5974012"></polygon>
                        <polygon id="路径-28" fill="#FFFFFF" opacity="0.15" points="15 35 18 36.4354239 18 48 15 46.5974012"></polygon>
                        <polygon id="路径-29" fill="#D8D8D8" opacity="0.119167911" points="68 35.7524075 68 42 74 38.5207998 74 32"></polygon>
                        <path d="M33.8897081,17.861089 L44.5082212,18.5399421 C46.5935763,18.6732612 48.3165418,20.2169696 48.6772388,22.2752159 L48.8381723,23.1935509 C49.1854203,25.1750526 47.8605958,27.0628771 45.8790942,27.4101251 C45.629504,27.4538645 45.376031,27.4714402 45.1227926,27.4625669 L34.428736,27.0878516 C32.2877521,27.0128324 30.4926629,25.4469414 30.1276861,23.3359624 L29.9412942,22.2578963 C29.5871986,20.209853 30.9604145,18.2625347 33.0084578,17.908439 C33.2993342,17.8581481 33.5951176,17.8422555 33.8897081,17.861089 Z" id="矩形" fill="#0A3EC4" transform="translate(39.371178, 22.588316) rotate(-31.000000) translate(-39.371178, -22.588316) "></path>
                        <path d="M34.9983935,19.0408319 L44.7654186,19.7065528 C46.5246028,19.8264589 47.9423911,21.1947161 48.1247523,22.9485265 C48.2768232,24.4110286 47.2145088,25.7198986 45.7520068,25.8719695 C45.6320993,25.8844375 45.5114835,25.8887468 45.390992,25.8848678 L35.8939869,25.5791283 C33.9567966,25.5167638 32.3487054,24.062861 32.0920533,22.141735 C31.8913841,20.6396597 32.9463823,19.2593125 34.4484576,19.0586433 C34.6307098,19.0342954 34.8149478,19.0283282 34.9983935,19.0408319 Z" id="矩形" fill="#00EBFF" transform="translate(40.043777, 22.397727) rotate(-31.000000) translate(-40.043777, -22.397727) "></path>
                        <path d="M47.0127079,51.9924448 C48.0054364,51.9088811 49,51.2819441 49,50.3711416 C49,49.4603391 47.9092652,48.9260982 47,49.0082922 C46.0907348,49.0904861 45,49.8312479 45,50.6436655 C45,51.4560831 46.0199794,52.0760084 47.0127079,51.9924448 Z" id="椭圆形" stroke="#0F3AA6" fill="#00EBFF"></path>
                        <path d="M52.0127079,49.9924448 C53.0054364,49.9088811 54,49.2819441 54,48.3711416 C54,47.4603391 52.9092652,46.9260982 52,47.0082922 C51.0907348,47.0904861 50,47.8312479 50,48.6436655 C50,49.4560831 51.0199794,50.0760084 52.0127079,49.9924448 Z" id="椭圆形" stroke="#0F3AA6" fill="#00EBFF"></path>
                        <path d="M56.0127079,46.9924448 C57.0054364,46.9088811 58,46.2819441 58,45.3711416 C58,44.4603391 56.9092652,43.9260982 56,44.0082922 C55.0907348,44.0904861 54,44.8312479 54,45.6436655 C54,46.4560831 55.0199794,47.0760084 56.0127079,46.9924448 Z" id="椭圆形" stroke="#0F3AA6" fill="#00EBFF"></path>
                    </g>
                    <g id="编组-10备份">
                        <g id="路径-30" transform="translate(0.000000, 21.000000)">
                            <mask id="mask-22" fill="white">
                                <use xlink:href="#path-21"></use>
                            </mask>
                            <use id="蒙版" fill="url(#linearGradient-3)" xlink:href="#path-21"></use>
                            <polygon fill="#166EE0" mask="url(#mask-22)" points="39 20.5131881 38.3877886 46 -3 21.9406267 -3 -2"></polygon>
                        </g>
                        <path d="M1.49656091,21.2400984 L37.9695975,0.819175757 C38.878804,0.310119289 39.9870381,0.309315083 40.8969824,0.817051458 L77.4971149,21.2394202 C77.9794001,21.5085287 78.152214,22.1176537 77.8831055,22.5999389 C77.7984887,22.7515857 77.6758396,22.8785832 77.5272318,22.96843 L40.987487,45.0599893 C40.0317628,45.6378105 38.8341774,45.6369063 37.8793267,45.0576426 L1.46641931,22.967618 C0.994230764,22.6811631 0.843663914,22.066161 1.13011884,21.5939725 C1.21966932,21.4463586 1.34591292,21.3244449 1.49656091,21.2400984 Z" id="路径-26" fill="url(#linearGradient-10)"></path>
                        <polygon id="路径-28" fill="#FFFFFF" opacity="0.15" points="4 29 7 30.4354239 7 42 4 40.5974012"></polygon>
                        <polygon id="路径-28" fill="#FFFFFF" opacity="0.15" points="9 32 12 33.4354239 12 45 9 43.5974012"></polygon>
                        <polygon id="路径-28" fill="#FFFFFF" opacity="0.15" points="15 35 18 36.4354239 18 48 15 46.5974012"></polygon>
                        <polygon id="路径-29" fill="#D8D8D8" opacity="0.119167911" points="68 35.7524075 68 42 74 38.5207998 74 32"></polygon>
                        <path d="M47.0127079,51.9924448 C48.0054364,51.9088811 49,51.2819441 49,50.3711416 C49,49.4603391 47.9092652,48.9260982 47,49.0082922 C46.0907348,49.0904861 45,49.8312479 45,50.6436655 C45,51.4560831 46.0199794,52.0760084 47.0127079,51.9924448 Z" id="椭圆形" stroke="#0F3AA6" fill="#00EBFF"></path>
                        <path d="M52.0127079,49.9924448 C53.0054364,49.9088811 54,49.2819441 54,48.3711416 C54,47.4603391 52.9092652,46.9260982 52,47.0082922 C51.0907348,47.0904861 50,47.8312479 50,48.6436655 C50,49.4560831 51.0199794,50.0760084 52.0127079,49.9924448 Z" id="椭圆形" stroke="#0F3AA6" fill="#00EBFF"></path>
                        <path d="M56.0127079,46.9924448 C57.0054364,46.9088811 58,46.2819441 58,45.3711416 C58,44.4603391 56.9092652,43.9260982 56,44.0082922 C55.0907348,44.0904861 54,44.8312479 54,45.6436655 C54,46.4560831 55.0199794,47.0760084 56.0127079,46.9924448 Z" id="椭圆形" stroke="#0F3AA6" fill="#00EBFF"></path>
                    </g>
                </g>
                <g id="编组备份-6" transform="translate(219.000000, 289.000000)">
                    <g id="编组-10" transform="translate(0.000000, 45.000000)">
                        <g id="路径-30" transform="translate(0.000000, 21.000000)">
                            <mask id="mask-24" fill="white">
                                <use xlink:href="#path-23"></use>
                            </mask>
                            <use id="蒙版" fill="url(#linearGradient-3)" xlink:href="#path-23"></use>
                            <polygon fill="#166EE0" mask="url(#mask-24)" points="39 20.5131881 38.3877886 46 -3 21.9406267 -3 -2"></polygon>
                        </g>
                        <path d="M1.49656091,21.2400984 L37.9695975,0.819175757 C38.878804,0.310119289 39.9870381,0.309315083 40.8969824,0.817051458 L77.4971149,21.2394202 C77.9794001,21.5085287 78.152214,22.1176537 77.8831055,22.5999389 C77.7984887,22.7515857 77.6758396,22.8785832 77.5272318,22.96843 L40.987487,45.0599893 C40.0317628,45.6378105 38.8341774,45.6369063 37.8793267,45.0576426 L1.46641931,22.967618 C0.994230764,22.6811631 0.843663914,22.066161 1.13011884,21.5939725 C1.21966932,21.4463586 1.34591292,21.3244449 1.49656091,21.2400984 Z" id="路径-26" fill="#00278A"></path>
                        <polygon id="路径-28" fill="#FFFFFF" opacity="0.15" points="4 29 7 30.4354239 7 42 4 40.5974012"></polygon>
                        <polygon id="路径-28" fill="#FFFFFF" opacity="0.15" points="9 32 12 33.4354239 12 45 9 43.5974012"></polygon>
                        <polygon id="路径-28" fill="#FFFFFF" opacity="0.15" points="15 35 18 36.4354239 18 48 15 46.5974012"></polygon>
                        <polygon id="路径-29" fill="#D8D8D8" opacity="0.119167911" points="68 35.7524075 68 42 74 38.5207998 74 32"></polygon>
                        <path d="M33.8897081,17.861089 L44.5082212,18.5399421 C46.5935763,18.6732612 48.3165418,20.2169696 48.6772388,22.2752159 L48.8381723,23.1935509 C49.1854203,25.1750526 47.8605958,27.0628771 45.8790942,27.4101251 C45.629504,27.4538645 45.376031,27.4714402 45.1227926,27.4625669 L34.428736,27.0878516 C32.2877521,27.0128324 30.4926629,25.4469414 30.1276861,23.3359624 L29.9412942,22.2578963 C29.5871986,20.209853 30.9604145,18.2625347 33.0084578,17.908439 C33.2993342,17.8581481 33.5951176,17.8422555 33.8897081,17.861089 Z" id="矩形" fill="#0A3EC4" transform="translate(39.371178, 22.588316) rotate(-31.000000) translate(-39.371178, -22.588316) "></path>
                        <path d="M34.9983935,19.0408319 L44.7654186,19.7065528 C46.5246028,19.8264589 47.9423911,21.1947161 48.1247523,22.9485265 C48.2768232,24.4110286 47.2145088,25.7198986 45.7520068,25.8719695 C45.6320993,25.8844375 45.5114835,25.8887468 45.390992,25.8848678 L35.8939869,25.5791283 C33.9567966,25.5167638 32.3487054,24.062861 32.0920533,22.141735 C31.8913841,20.6396597 32.9463823,19.2593125 34.4484576,19.0586433 C34.6307098,19.0342954 34.8149478,19.0283282 34.9983935,19.0408319 Z" id="矩形" fill="#00EBFF" transform="translate(40.043777, 22.397727) rotate(-31.000000) translate(-40.043777, -22.397727) "></path>
                        <path d="M47.0127079,51.9924448 C48.0054364,51.9088811 49,51.2819441 49,50.3711416 C49,49.4603391 47.9092652,48.9260982 47,49.0082922 C46.0907348,49.0904861 45,49.8312479 45,50.6436655 C45,51.4560831 46.0199794,52.0760084 47.0127079,51.9924448 Z" id="椭圆形" stroke="#0F3AA6" fill="#00EBFF"></path>
                        <path d="M52.0127079,49.9924448 C53.0054364,49.9088811 54,49.2819441 54,48.3711416 C54,47.4603391 52.9092652,46.9260982 52,47.0082922 C51.0907348,47.0904861 50,47.8312479 50,48.6436655 C50,49.4560831 51.0199794,50.0760084 52.0127079,49.9924448 Z" id="椭圆形" stroke="#0F3AA6" fill="#00EBFF"></path>
                        <path d="M56.0127079,46.9924448 C57.0054364,46.9088811 58,46.2819441 58,45.3711416 C58,44.4603391 56.9092652,43.9260982 56,44.0082922 C55.0907348,44.0904861 54,44.8312479 54,45.6436655 C54,46.4560831 55.0199794,47.0760084 56.0127079,46.9924448 Z" id="椭圆形" stroke="#0F3AA6" fill="#00EBFF"></path>
                    </g>
                    <g id="编组-10" transform="translate(0.000000, 22.000000)">
                        <g id="路径-30" transform="translate(0.000000, 21.000000)">
                            <mask id="mask-26" fill="white">
                                <use xlink:href="#path-25"></use>
                            </mask>
                            <use id="蒙版" fill="url(#linearGradient-3)" xlink:href="#path-25"></use>
                            <polygon fill="#166EE0" mask="url(#mask-26)" points="39 20.5131881 38.3877886 46 -3 21.9406267 -3 -2"></polygon>
                        </g>
                        <path d="M1.49656091,21.2400984 L37.9695975,0.819175757 C38.878804,0.310119289 39.9870381,0.309315083 40.8969824,0.817051458 L77.4971149,21.2394202 C77.9794001,21.5085287 78.152214,22.1176537 77.8831055,22.5999389 C77.7984887,22.7515857 77.6758396,22.8785832 77.5272318,22.96843 L40.987487,45.0599893 C40.0317628,45.6378105 38.8341774,45.6369063 37.8793267,45.0576426 L1.46641931,22.967618 C0.994230764,22.6811631 0.843663914,22.066161 1.13011884,21.5939725 C1.21966932,21.4463586 1.34591292,21.3244449 1.49656091,21.2400984 Z" id="路径-26" fill="#00278A"></path>
                        <polygon id="路径-28" fill="#FFFFFF" opacity="0.15" points="4 29 7 30.4354239 7 42 4 40.5974012"></polygon>
                        <polygon id="路径-28" fill="#FFFFFF" opacity="0.15" points="9 32 12 33.4354239 12 45 9 43.5974012"></polygon>
                        <polygon id="路径-28" fill="#FFFFFF" opacity="0.15" points="15 35 18 36.4354239 18 48 15 46.5974012"></polygon>
                        <polygon id="路径-29" fill="#D8D8D8" opacity="0.119167911" points="68 35.7524075 68 42 74 38.5207998 74 32"></polygon>
                        <path d="M33.8897081,17.861089 L44.5082212,18.5399421 C46.5935763,18.6732612 48.3165418,20.2169696 48.6772388,22.2752159 L48.8381723,23.1935509 C49.1854203,25.1750526 47.8605958,27.0628771 45.8790942,27.4101251 C45.629504,27.4538645 45.376031,27.4714402 45.1227926,27.4625669 L34.428736,27.0878516 C32.2877521,27.0128324 30.4926629,25.4469414 30.1276861,23.3359624 L29.9412942,22.2578963 C29.5871986,20.209853 30.9604145,18.2625347 33.0084578,17.908439 C33.2993342,17.8581481 33.5951176,17.8422555 33.8897081,17.861089 Z" id="矩形" fill="#0A3EC4" transform="translate(39.371178, 22.588316) rotate(-31.000000) translate(-39.371178, -22.588316) "></path>
                        <path d="M34.9983935,19.0408319 L44.7654186,19.7065528 C46.5246028,19.8264589 47.9423911,21.1947161 48.1247523,22.9485265 C48.2768232,24.4110286 47.2145088,25.7198986 45.7520068,25.8719695 C45.6320993,25.8844375 45.5114835,25.8887468 45.390992,25.8848678 L35.8939869,25.5791283 C33.9567966,25.5167638 32.3487054,24.062861 32.0920533,22.141735 C31.8913841,20.6396597 32.9463823,19.2593125 34.4484576,19.0586433 C34.6307098,19.0342954 34.8149478,19.0283282 34.9983935,19.0408319 Z" id="矩形" fill="#00EBFF" transform="translate(40.043777, 22.397727) rotate(-31.000000) translate(-40.043777, -22.397727) "></path>
                        <path d="M47.0127079,51.9924448 C48.0054364,51.9088811 49,51.2819441 49,50.3711416 C49,49.4603391 47.9092652,48.9260982 47,49.0082922 C46.0907348,49.0904861 45,49.8312479 45,50.6436655 C45,51.4560831 46.0199794,52.0760084 47.0127079,51.9924448 Z" id="椭圆形" stroke="#0F3AA6" fill="#00EBFF"></path>
                        <path d="M52.0127079,49.9924448 C53.0054364,49.9088811 54,49.2819441 54,48.3711416 C54,47.4603391 52.9092652,46.9260982 52,47.0082922 C51.0907348,47.0904861 50,47.8312479 50,48.6436655 C50,49.4560831 51.0199794,50.0760084 52.0127079,49.9924448 Z" id="椭圆形" stroke="#0F3AA6" fill="#00EBFF"></path>
                        <path d="M56.0127079,46.9924448 C57.0054364,46.9088811 58,46.2819441 58,45.3711416 C58,44.4603391 56.9092652,43.9260982 56,44.0082922 C55.0907348,44.0904861 54,44.8312479 54,45.6436655 C54,46.4560831 55.0199794,47.0760084 56.0127079,46.9924448 Z" id="椭圆形" stroke="#0F3AA6" fill="#00EBFF"></path>
                    </g>
                    <g id="编组-10备份">
                        <g id="路径-30" transform="translate(0.000000, 21.000000)">
                            <mask id="mask-28" fill="white">
                                <use xlink:href="#path-27"></use>
                            </mask>
                            <use id="蒙版" fill="url(#linearGradient-3)" xlink:href="#path-27"></use>
                            <polygon fill="#166EE0" mask="url(#mask-28)" points="39 20.5131881 38.3877886 46 -3 21.9406267 -3 -2"></polygon>
                        </g>
                        <path d="M1.49656091,21.2400984 L37.9695975,0.819175757 C38.878804,0.310119289 39.9870381,0.309315083 40.8969824,0.817051458 L77.4971149,21.2394202 C77.9794001,21.5085287 78.152214,22.1176537 77.8831055,22.5999389 C77.7984887,22.7515857 77.6758396,22.8785832 77.5272318,22.96843 L40.987487,45.0599893 C40.0317628,45.6378105 38.8341774,45.6369063 37.8793267,45.0576426 L1.46641931,22.967618 C0.994230764,22.6811631 0.843663914,22.066161 1.13011884,21.5939725 C1.21966932,21.4463586 1.34591292,21.3244449 1.49656091,21.2400984 Z" id="路径-26" fill="url(#linearGradient-10)"></path>
                        <polygon id="路径-28" fill="#FFFFFF" opacity="0.15" points="4 29 7 30.4354239 7 42 4 40.5974012"></polygon>
                        <polygon id="路径-28" fill="#FFFFFF" opacity="0.15" points="9 32 12 33.4354239 12 45 9 43.5974012"></polygon>
                        <polygon id="路径-28" fill="#FFFFFF" opacity="0.15" points="15 35 18 36.4354239 18 48 15 46.5974012"></polygon>
                        <polygon id="路径-29" fill="#D8D8D8" opacity="0.119167911" points="68 35.7524075 68 42 74 38.5207998 74 32"></polygon>
                        <path d="M47.0127079,51.9924448 C48.0054364,51.9088811 49,51.2819441 49,50.3711416 C49,49.4603391 47.9092652,48.9260982 47,49.0082922 C46.0907348,49.0904861 45,49.8312479 45,50.6436655 C45,51.4560831 46.0199794,52.0760084 47.0127079,51.9924448 Z" id="椭圆形" stroke="#0F3AA6" fill="#00EBFF"></path>
                        <path d="M52.0127079,49.9924448 C53.0054364,49.9088811 54,49.2819441 54,48.3711416 C54,47.4603391 52.9092652,46.9260982 52,47.0082922 C51.0907348,47.0904861 50,47.8312479 50,48.6436655 C50,49.4560831 51.0199794,50.0760084 52.0127079,49.9924448 Z" id="椭圆形" stroke="#0F3AA6" fill="#00EBFF"></path>
                        <path d="M56.0127079,46.9924448 C57.0054364,46.9088811 58,46.2819441 58,45.3711416 C58,44.4603391 56.9092652,43.9260982 56,44.0082922 C55.0907348,44.0904861 54,44.8312479 54,45.6436655 C54,46.4560831 55.0199794,47.0760084 56.0127079,46.9924448 Z" id="椭圆形" stroke="#0F3AA6" fill="#00EBFF"></path>
                    </g>
                </g>
                <g id="编组备份-2" opacity="0.57980569" transform="translate(345.000000, 55.000000)">
                    <g id="编组-10" transform="translate(0.000000, 45.000000)">
                        <g id="路径-30" transform="translate(0.000000, 21.000000)">
                            <mask id="mask-30" fill="white">
                                <use xlink:href="#path-29"></use>
                            </mask>
                            <use id="蒙版" fill="url(#linearGradient-3)" xlink:href="#path-29"></use>
                            <polygon fill="#166EE0" mask="url(#mask-30)" points="39 20.5131881 38.3877886 46 -3 21.9406267 -3 -2"></polygon>
                        </g>
                        <path d="M1.49656091,21.2400984 L37.9695975,0.819175757 C38.878804,0.310119289 39.9870381,0.309315083 40.8969824,0.817051458 L77.4971149,21.2394202 C77.9794001,21.5085287 78.152214,22.1176537 77.8831055,22.5999389 C77.7984887,22.7515857 77.6758396,22.8785832 77.5272318,22.96843 L40.987487,45.0599893 C40.0317628,45.6378105 38.8341774,45.6369063 37.8793267,45.0576426 L1.46641931,22.967618 C0.994230764,22.6811631 0.843663914,22.066161 1.13011884,21.5939725 C1.21966932,21.4463586 1.34591292,21.3244449 1.49656091,21.2400984 Z" id="路径-26" fill="#00278A"></path>
                        <polygon id="路径-28" fill="#FFFFFF" opacity="0.15" points="4 29 7 30.4354239 7 42 4 40.5974012"></polygon>
                        <polygon id="路径-28" fill="#FFFFFF" opacity="0.15" points="9 32 12 33.4354239 12 45 9 43.5974012"></polygon>
                        <polygon id="路径-28" fill="#FFFFFF" opacity="0.15" points="15 35 18 36.4354239 18 48 15 46.5974012"></polygon>
                        <polygon id="路径-29" fill="#D8D8D8" opacity="0.119167911" points="68 35.7524075 68 42 74 38.5207998 74 32"></polygon>
                        <path d="M33.8897081,17.861089 L44.5082212,18.5399421 C46.5935763,18.6732612 48.3165418,20.2169696 48.6772388,22.2752159 L48.8381723,23.1935509 C49.1854203,25.1750526 47.8605958,27.0628771 45.8790942,27.4101251 C45.629504,27.4538645 45.376031,27.4714402 45.1227926,27.4625669 L34.428736,27.0878516 C32.2877521,27.0128324 30.4926629,25.4469414 30.1276861,23.3359624 L29.9412942,22.2578963 C29.5871986,20.209853 30.9604145,18.2625347 33.0084578,17.908439 C33.2993342,17.8581481 33.5951176,17.8422555 33.8897081,17.861089 Z" id="矩形" fill="#0A3EC4" transform="translate(39.371178, 22.588316) rotate(-31.000000) translate(-39.371178, -22.588316) "></path>
                        <path d="M34.9983935,19.0408319 L44.7654186,19.7065528 C46.5246028,19.8264589 47.9423911,21.1947161 48.1247523,22.9485265 C48.2768232,24.4110286 47.2145088,25.7198986 45.7520068,25.8719695 C45.6320993,25.8844375 45.5114835,25.8887468 45.390992,25.8848678 L35.8939869,25.5791283 C33.9567966,25.5167638 32.3487054,24.062861 32.0920533,22.141735 C31.8913841,20.6396597 32.9463823,19.2593125 34.4484576,19.0586433 C34.6307098,19.0342954 34.8149478,19.0283282 34.9983935,19.0408319 Z" id="矩形" fill="#00EBFF" transform="translate(40.043777, 22.397727) rotate(-31.000000) translate(-40.043777, -22.397727) "></path>
                        <path d="M47.0127079,51.9924448 C48.0054364,51.9088811 49,51.2819441 49,50.3711416 C49,49.4603391 47.9092652,48.9260982 47,49.0082922 C46.0907348,49.0904861 45,49.8312479 45,50.6436655 C45,51.4560831 46.0199794,52.0760084 47.0127079,51.9924448 Z" id="椭圆形" stroke="#0F3AA6" fill="#00EBFF"></path>
                        <path d="M52.0127079,49.9924448 C53.0054364,49.9088811 54,49.2819441 54,48.3711416 C54,47.4603391 52.9092652,46.9260982 52,47.0082922 C51.0907348,47.0904861 50,47.8312479 50,48.6436655 C50,49.4560831 51.0199794,50.0760084 52.0127079,49.9924448 Z" id="椭圆形" stroke="#0F3AA6" fill="#00EBFF"></path>
                        <path d="M56.0127079,46.9924448 C57.0054364,46.9088811 58,46.2819441 58,45.3711416 C58,44.4603391 56.9092652,43.9260982 56,44.0082922 C55.0907348,44.0904861 54,44.8312479 54,45.6436655 C54,46.4560831 55.0199794,47.0760084 56.0127079,46.9924448 Z" id="椭圆形" stroke="#0F3AA6" fill="#00EBFF"></path>
                    </g>
                    <g id="编组-10" transform="translate(0.000000, 22.000000)">
                        <g id="路径-30" transform="translate(0.000000, 21.000000)">
                            <mask id="mask-32" fill="white">
                                <use xlink:href="#path-31"></use>
                            </mask>
                            <use id="蒙版" fill="url(#linearGradient-3)" xlink:href="#path-31"></use>
                            <polygon fill="#166EE0" mask="url(#mask-32)" points="39 20.5131881 38.3877886 46 -3 21.9406267 -3 -2"></polygon>
                        </g>
                        <path d="M1.49656091,21.2400984 L37.9695975,0.819175757 C38.878804,0.310119289 39.9870381,0.309315083 40.8969824,0.817051458 L77.4971149,21.2394202 C77.9794001,21.5085287 78.152214,22.1176537 77.8831055,22.5999389 C77.7984887,22.7515857 77.6758396,22.8785832 77.5272318,22.96843 L40.987487,45.0599893 C40.0317628,45.6378105 38.8341774,45.6369063 37.8793267,45.0576426 L1.46641931,22.967618 C0.994230764,22.6811631 0.843663914,22.066161 1.13011884,21.5939725 C1.21966932,21.4463586 1.34591292,21.3244449 1.49656091,21.2400984 Z" id="路径-26" fill="#00278A"></path>
                        <polygon id="路径-28" fill="#FFFFFF" opacity="0.15" points="4 29 7 30.4354239 7 42 4 40.5974012"></polygon>
                        <polygon id="路径-28" fill="#FFFFFF" opacity="0.15" points="9 32 12 33.4354239 12 45 9 43.5974012"></polygon>
                        <polygon id="路径-28" fill="#FFFFFF" opacity="0.15" points="15 35 18 36.4354239 18 48 15 46.5974012"></polygon>
                        <polygon id="路径-29" fill="#D8D8D8" opacity="0.119167911" points="68 35.7524075 68 42 74 38.5207998 74 32"></polygon>
                        <path d="M33.8897081,17.861089 L44.5082212,18.5399421 C46.5935763,18.6732612 48.3165418,20.2169696 48.6772388,22.2752159 L48.8381723,23.1935509 C49.1854203,25.1750526 47.8605958,27.0628771 45.8790942,27.4101251 C45.629504,27.4538645 45.376031,27.4714402 45.1227926,27.4625669 L34.428736,27.0878516 C32.2877521,27.0128324 30.4926629,25.4469414 30.1276861,23.3359624 L29.9412942,22.2578963 C29.5871986,20.209853 30.9604145,18.2625347 33.0084578,17.908439 C33.2993342,17.8581481 33.5951176,17.8422555 33.8897081,17.861089 Z" id="矩形" fill="#0A3EC4" transform="translate(39.371178, 22.588316) rotate(-31.000000) translate(-39.371178, -22.588316) "></path>
                        <path d="M34.9983935,19.0408319 L44.7654186,19.7065528 C46.5246028,19.8264589 47.9423911,21.1947161 48.1247523,22.9485265 C48.2768232,24.4110286 47.2145088,25.7198986 45.7520068,25.8719695 C45.6320993,25.8844375 45.5114835,25.8887468 45.390992,25.8848678 L35.8939869,25.5791283 C33.9567966,25.5167638 32.3487054,24.062861 32.0920533,22.141735 C31.8913841,20.6396597 32.9463823,19.2593125 34.4484576,19.0586433 C34.6307098,19.0342954 34.8149478,19.0283282 34.9983935,19.0408319 Z" id="矩形" fill="#00EBFF" transform="translate(40.043777, 22.397727) rotate(-31.000000) translate(-40.043777, -22.397727) "></path>
                        <path d="M47.0127079,51.9924448 C48.0054364,51.9088811 49,51.2819441 49,50.3711416 C49,49.4603391 47.9092652,48.9260982 47,49.0082922 C46.0907348,49.0904861 45,49.8312479 45,50.6436655 C45,51.4560831 46.0199794,52.0760084 47.0127079,51.9924448 Z" id="椭圆形" stroke="#0F3AA6" fill="#00EBFF"></path>
                        <path d="M52.0127079,49.9924448 C53.0054364,49.9088811 54,49.2819441 54,48.3711416 C54,47.4603391 52.9092652,46.9260982 52,47.0082922 C51.0907348,47.0904861 50,47.8312479 50,48.6436655 C50,49.4560831 51.0199794,50.0760084 52.0127079,49.9924448 Z" id="椭圆形" stroke="#0F3AA6" fill="#00EBFF"></path>
                        <path d="M56.0127079,46.9924448 C57.0054364,46.9088811 58,46.2819441 58,45.3711416 C58,44.4603391 56.9092652,43.9260982 56,44.0082922 C55.0907348,44.0904861 54,44.8312479 54,45.6436655 C54,46.4560831 55.0199794,47.0760084 56.0127079,46.9924448 Z" id="椭圆形" stroke="#0F3AA6" fill="#00EBFF"></path>
                    </g>
                    <g id="编组-10备份">
                        <g id="路径-30" transform="translate(0.000000, 21.000000)">
                            <mask id="mask-34" fill="white">
                                <use xlink:href="#path-33"></use>
                            </mask>
                            <use id="蒙版" fill="url(#linearGradient-3)" xlink:href="#path-33"></use>
                            <polygon fill="#166EE0" mask="url(#mask-34)" points="39 20.5131881 38.3877886 46 -3 21.9406267 -3 -2"></polygon>
                        </g>
                        <path d="M1.49656091,21.2400984 L37.9695975,0.819175757 C38.878804,0.310119289 39.9870381,0.309315083 40.8969824,0.817051458 L77.4971149,21.2394202 C77.9794001,21.5085287 78.152214,22.1176537 77.8831055,22.5999389 C77.7984887,22.7515857 77.6758396,22.8785832 77.5272318,22.96843 L40.987487,45.0599893 C40.0317628,45.6378105 38.8341774,45.6369063 37.8793267,45.0576426 L1.46641931,22.967618 C0.994230764,22.6811631 0.843663914,22.066161 1.13011884,21.5939725 C1.21966932,21.4463586 1.34591292,21.3244449 1.49656091,21.2400984 Z" id="路径-26" fill="url(#linearGradient-10)"></path>
                        <polygon id="路径-28" fill="#FFFFFF" opacity="0.15" points="4 29 7 30.4354239 7 42 4 40.5974012"></polygon>
                        <polygon id="路径-28" fill="#FFFFFF" opacity="0.15" points="9 32 12 33.4354239 12 45 9 43.5974012"></polygon>
                        <polygon id="路径-28" fill="#FFFFFF" opacity="0.15" points="15 35 18 36.4354239 18 48 15 46.5974012"></polygon>
                        <polygon id="路径-29" fill="#D8D8D8" opacity="0.119167911" points="68 35.7524075 68 42 74 38.5207998 74 32"></polygon>
                        <path d="M47.0127079,51.9924448 C48.0054364,51.9088811 49,51.2819441 49,50.3711416 C49,49.4603391 47.9092652,48.9260982 47,49.0082922 C46.0907348,49.0904861 45,49.8312479 45,50.6436655 C45,51.4560831 46.0199794,52.0760084 47.0127079,51.9924448 Z" id="椭圆形" stroke="#0F3AA6" fill="#00EBFF"></path>
                        <path d="M52.0127079,49.9924448 C53.0054364,49.9088811 54,49.2819441 54,48.3711416 C54,47.4603391 52.9092652,46.9260982 52,47.0082922 C51.0907348,47.0904861 50,47.8312479 50,48.6436655 C50,49.4560831 51.0199794,50.0760084 52.0127079,49.9924448 Z" id="椭圆形" stroke="#0F3AA6" fill="#00EBFF"></path>
                        <path d="M56.0127079,46.9924448 C57.0054364,46.9088811 58,46.2819441 58,45.3711416 C58,44.4603391 56.9092652,43.9260982 56,44.0082922 C55.0907348,44.0904861 54,44.8312479 54,45.6436655 C54,46.4560831 55.0199794,47.0760084 56.0127079,46.9924448 Z" id="椭圆形" stroke="#0F3AA6" fill="#00EBFF"></path>
                    </g>
                </g>
                <g id="编组备份-3" opacity="0.746442009" transform="translate(450.000000, 110.000000)">
                    <g id="编组-10" transform="translate(0.000000, 45.000000)">
                        <g id="路径-30" transform="translate(0.000000, 21.000000)">
                            <mask id="mask-36" fill="white">
                                <use xlink:href="#path-35"></use>
                            </mask>
                            <use id="蒙版" fill="url(#linearGradient-3)" xlink:href="#path-35"></use>
                            <polygon fill="#166EE0" mask="url(#mask-36)" points="39 20.5131881 38.3877886 46 -3 21.9406267 -3 -2"></polygon>
                        </g>
                        <path d="M1.49656091,21.2400984 L37.9695975,0.819175757 C38.878804,0.310119289 39.9870381,0.309315083 40.8969824,0.817051458 L77.4971149,21.2394202 C77.9794001,21.5085287 78.152214,22.1176537 77.8831055,22.5999389 C77.7984887,22.7515857 77.6758396,22.8785832 77.5272318,22.96843 L40.987487,45.0599893 C40.0317628,45.6378105 38.8341774,45.6369063 37.8793267,45.0576426 L1.46641931,22.967618 C0.994230764,22.6811631 0.843663914,22.066161 1.13011884,21.5939725 C1.21966932,21.4463586 1.34591292,21.3244449 1.49656091,21.2400984 Z" id="路径-26" fill="#00278A"></path>
                        <polygon id="路径-28" fill="#FFFFFF" opacity="0.15" points="4 29 7 30.4354239 7 42 4 40.5974012"></polygon>
                        <polygon id="路径-28" fill="#FFFFFF" opacity="0.15" points="9 32 12 33.4354239 12 45 9 43.5974012"></polygon>
                        <polygon id="路径-28" fill="#FFFFFF" opacity="0.15" points="15 35 18 36.4354239 18 48 15 46.5974012"></polygon>
                        <polygon id="路径-29" fill="#D8D8D8" opacity="0.119167911" points="68 35.7524075 68 42 74 38.5207998 74 32"></polygon>
                        <path d="M33.8897081,17.861089 L44.5082212,18.5399421 C46.5935763,18.6732612 48.3165418,20.2169696 48.6772388,22.2752159 L48.8381723,23.1935509 C49.1854203,25.1750526 47.8605958,27.0628771 45.8790942,27.4101251 C45.629504,27.4538645 45.376031,27.4714402 45.1227926,27.4625669 L34.428736,27.0878516 C32.2877521,27.0128324 30.4926629,25.4469414 30.1276861,23.3359624 L29.9412942,22.2578963 C29.5871986,20.209853 30.9604145,18.2625347 33.0084578,17.908439 C33.2993342,17.8581481 33.5951176,17.8422555 33.8897081,17.861089 Z" id="矩形" fill="#0A3EC4" transform="translate(39.371178, 22.588316) rotate(-31.000000) translate(-39.371178, -22.588316) "></path>
                        <path d="M34.9983935,19.0408319 L44.7654186,19.7065528 C46.5246028,19.8264589 47.9423911,21.1947161 48.1247523,22.9485265 C48.2768232,24.4110286 47.2145088,25.7198986 45.7520068,25.8719695 C45.6320993,25.8844375 45.5114835,25.8887468 45.390992,25.8848678 L35.8939869,25.5791283 C33.9567966,25.5167638 32.3487054,24.062861 32.0920533,22.141735 C31.8913841,20.6396597 32.9463823,19.2593125 34.4484576,19.0586433 C34.6307098,19.0342954 34.8149478,19.0283282 34.9983935,19.0408319 Z" id="矩形" fill="#00EBFF" transform="translate(40.043777, 22.397727) rotate(-31.000000) translate(-40.043777, -22.397727) "></path>
                        <path d="M47.0127079,51.9924448 C48.0054364,51.9088811 49,51.2819441 49,50.3711416 C49,49.4603391 47.9092652,48.9260982 47,49.0082922 C46.0907348,49.0904861 45,49.8312479 45,50.6436655 C45,51.4560831 46.0199794,52.0760084 47.0127079,51.9924448 Z" id="椭圆形" stroke="#0F3AA6" fill="#00EBFF"></path>
                        <path d="M52.0127079,49.9924448 C53.0054364,49.9088811 54,49.2819441 54,48.3711416 C54,47.4603391 52.9092652,46.9260982 52,47.0082922 C51.0907348,47.0904861 50,47.8312479 50,48.6436655 C50,49.4560831 51.0199794,50.0760084 52.0127079,49.9924448 Z" id="椭圆形" stroke="#0F3AA6" fill="#00EBFF"></path>
                        <path d="M56.0127079,46.9924448 C57.0054364,46.9088811 58,46.2819441 58,45.3711416 C58,44.4603391 56.9092652,43.9260982 56,44.0082922 C55.0907348,44.0904861 54,44.8312479 54,45.6436655 C54,46.4560831 55.0199794,47.0760084 56.0127079,46.9924448 Z" id="椭圆形" stroke="#0F3AA6" fill="#00EBFF"></path>
                    </g>
                    <g id="编组-10" transform="translate(0.000000, 22.000000)">
                        <g id="路径-30" transform="translate(0.000000, 21.000000)">
                            <mask id="mask-38" fill="white">
                                <use xlink:href="#path-37"></use>
                            </mask>
                            <use id="蒙版" fill="url(#linearGradient-3)" xlink:href="#path-37"></use>
                            <polygon fill="#166EE0" mask="url(#mask-38)" points="39 20.5131881 38.3877886 46 -3 21.9406267 -3 -2"></polygon>
                        </g>
                        <path d="M1.49656091,21.2400984 L37.9695975,0.819175757 C38.878804,0.310119289 39.9870381,0.309315083 40.8969824,0.817051458 L77.4971149,21.2394202 C77.9794001,21.5085287 78.152214,22.1176537 77.8831055,22.5999389 C77.7984887,22.7515857 77.6758396,22.8785832 77.5272318,22.96843 L40.987487,45.0599893 C40.0317628,45.6378105 38.8341774,45.6369063 37.8793267,45.0576426 L1.46641931,22.967618 C0.994230764,22.6811631 0.843663914,22.066161 1.13011884,21.5939725 C1.21966932,21.4463586 1.34591292,21.3244449 1.49656091,21.2400984 Z" id="路径-26" fill="#00278A"></path>
                        <polygon id="路径-28" fill="#FFFFFF" opacity="0.15" points="4 29 7 30.4354239 7 42 4 40.5974012"></polygon>
                        <polygon id="路径-28" fill="#FFFFFF" opacity="0.15" points="9 32 12 33.4354239 12 45 9 43.5974012"></polygon>
                        <polygon id="路径-28" fill="#FFFFFF" opacity="0.15" points="15 35 18 36.4354239 18 48 15 46.5974012"></polygon>
                        <polygon id="路径-29" fill="#D8D8D8" opacity="0.119167911" points="68 35.7524075 68 42 74 38.5207998 74 32"></polygon>
                        <path d="M33.8897081,17.861089 L44.5082212,18.5399421 C46.5935763,18.6732612 48.3165418,20.2169696 48.6772388,22.2752159 L48.8381723,23.1935509 C49.1854203,25.1750526 47.8605958,27.0628771 45.8790942,27.4101251 C45.629504,27.4538645 45.376031,27.4714402 45.1227926,27.4625669 L34.428736,27.0878516 C32.2877521,27.0128324 30.4926629,25.4469414 30.1276861,23.3359624 L29.9412942,22.2578963 C29.5871986,20.209853 30.9604145,18.2625347 33.0084578,17.908439 C33.2993342,17.8581481 33.5951176,17.8422555 33.8897081,17.861089 Z" id="矩形" fill="#0A3EC4" transform="translate(39.371178, 22.588316) rotate(-31.000000) translate(-39.371178, -22.588316) "></path>
                        <path d="M34.9983935,19.0408319 L44.7654186,19.7065528 C46.5246028,19.8264589 47.9423911,21.1947161 48.1247523,22.9485265 C48.2768232,24.4110286 47.2145088,25.7198986 45.7520068,25.8719695 C45.6320993,25.8844375 45.5114835,25.8887468 45.390992,25.8848678 L35.8939869,25.5791283 C33.9567966,25.5167638 32.3487054,24.062861 32.0920533,22.141735 C31.8913841,20.6396597 32.9463823,19.2593125 34.4484576,19.0586433 C34.6307098,19.0342954 34.8149478,19.0283282 34.9983935,19.0408319 Z" id="矩形" fill="#00EBFF" transform="translate(40.043777, 22.397727) rotate(-31.000000) translate(-40.043777, -22.397727) "></path>
                        <path d="M47.0127079,51.9924448 C48.0054364,51.9088811 49,51.2819441 49,50.3711416 C49,49.4603391 47.9092652,48.9260982 47,49.0082922 C46.0907348,49.0904861 45,49.8312479 45,50.6436655 C45,51.4560831 46.0199794,52.0760084 47.0127079,51.9924448 Z" id="椭圆形" stroke="#0F3AA6" fill="#00EBFF"></path>
                        <path d="M52.0127079,49.9924448 C53.0054364,49.9088811 54,49.2819441 54,48.3711416 C54,47.4603391 52.9092652,46.9260982 52,47.0082922 C51.0907348,47.0904861 50,47.8312479 50,48.6436655 C50,49.4560831 51.0199794,50.0760084 52.0127079,49.9924448 Z" id="椭圆形" stroke="#0F3AA6" fill="#00EBFF"></path>
                        <path d="M56.0127079,46.9924448 C57.0054364,46.9088811 58,46.2819441 58,45.3711416 C58,44.4603391 56.9092652,43.9260982 56,44.0082922 C55.0907348,44.0904861 54,44.8312479 54,45.6436655 C54,46.4560831 55.0199794,47.0760084 56.0127079,46.9924448 Z" id="椭圆形" stroke="#0F3AA6" fill="#00EBFF"></path>
                    </g>
                    <g id="编组-10备份">
                        <g id="路径-30" transform="translate(0.000000, 21.000000)">
                            <mask id="mask-40" fill="white">
                                <use xlink:href="#path-39"></use>
                            </mask>
                            <use id="蒙版" fill="url(#linearGradient-3)" xlink:href="#path-39"></use>
                            <polygon fill="#166EE0" mask="url(#mask-40)" points="39 20.5131881 38.3877886 46 -3 21.9406267 -3 -2"></polygon>
                        </g>
                        <path d="M1.49656091,21.2400984 L37.9695975,0.819175757 C38.878804,0.310119289 39.9870381,0.309315083 40.8969824,0.817051458 L77.4971149,21.2394202 C77.9794001,21.5085287 78.152214,22.1176537 77.8831055,22.5999389 C77.7984887,22.7515857 77.6758396,22.8785832 77.5272318,22.96843 L40.987487,45.0599893 C40.0317628,45.6378105 38.8341774,45.6369063 37.8793267,45.0576426 L1.46641931,22.967618 C0.994230764,22.6811631 0.843663914,22.066161 1.13011884,21.5939725 C1.21966932,21.4463586 1.34591292,21.3244449 1.49656091,21.2400984 Z" id="路径-26" fill="url(#linearGradient-10)"></path>
                        <polygon id="路径-28" fill="#FFFFFF" opacity="0.15" points="4 29 7 30.4354239 7 42 4 40.5974012"></polygon>
                        <polygon id="路径-28" fill="#FFFFFF" opacity="0.15" points="9 32 12 33.4354239 12 45 9 43.5974012"></polygon>
                        <polygon id="路径-28" fill="#FFFFFF" opacity="0.15" points="15 35 18 36.4354239 18 48 15 46.5974012"></polygon>
                        <polygon id="路径-29" fill="#D8D8D8" opacity="0.119167911" points="68 35.7524075 68 42 74 38.5207998 74 32"></polygon>
                        <path d="M47.0127079,51.9924448 C48.0054364,51.9088811 49,51.2819441 49,50.3711416 C49,49.4603391 47.9092652,48.9260982 47,49.0082922 C46.0907348,49.0904861 45,49.8312479 45,50.6436655 C45,51.4560831 46.0199794,52.0760084 47.0127079,51.9924448 Z" id="椭圆形" stroke="#0F3AA6" fill="#00EBFF"></path>
                        <path d="M52.0127079,49.9924448 C53.0054364,49.9088811 54,49.2819441 54,48.3711416 C54,47.4603391 52.9092652,46.9260982 52,47.0082922 C51.0907348,47.0904861 50,47.8312479 50,48.6436655 C50,49.4560831 51.0199794,50.0760084 52.0127079,49.9924448 Z" id="椭圆形" stroke="#0F3AA6" fill="#00EBFF"></path>
                        <path d="M56.0127079,46.9924448 C57.0054364,46.9088811 58,46.2819441 58,45.3711416 C58,44.4603391 56.9092652,43.9260982 56,44.0082922 C55.0907348,44.0904861 54,44.8312479 54,45.6436655 C54,46.4560831 55.0199794,47.0760084 56.0127079,46.9924448 Z" id="椭圆形" stroke="#0F3AA6" fill="#00EBFF"></path>
                    </g>
                </g>
                <g id="编组-11" opacity="0.8" transform="translate(373.000000, 256.000000)">
                    <g id="路径-35" transform="translate(0.000000, 26.000000)">
                        <mask id="mask-43" fill="white">
                            <use xlink:href="#path-42"></use>
                        </mask>
                        <use id="蒙版" fill="url(#linearGradient-41)" xlink:href="#path-42"></use>
                        <polygon fill="#166EE0" mask="url(#mask-43)" points="33 19.7450274 33 39 0 20.3046132 0.421365676 0"></polygon>
                    </g>
                    <polygon id="路径-31" fill="#00A2E4" points="1 26.4043586 32.956852 46 66 26.7523595 32.956852 8"></polygon>
                    <g id="路径-33" transform="translate(2.000000, 17.000000)">
                        <mask id="mask-45" fill="white">
                            <use xlink:href="#path-44"></use>
                        </mask>
                        <use id="蒙版" fill="#0A3EC4" xlink:href="#path-44"></use>
                        <path d="M31,17.2042059 C31,17.4286047 31,20.0272027 31,25 L0,6.76515438 L0,0 C20.6666667,11.2450719 31,16.9798072 31,17.2042059 Z" fill="#166EE0" mask="url(#mask-45)"></path>
                    </g>
                    <path d="M32.1711203,0.900421331 L3.42357231,17.7819692 C2.947331,18.0616345 2.78797463,18.6744179 3.06763989,19.1506592 C3.14931557,19.2897445 3.26342265,19.4070094 3.40022711,19.4924505 L31.5191305,37.0540889 C32.4524222,37.6369755 33.6299232,37.6621493 34.5872738,37.1196827 L64.5059251,20.1667844 C64.986432,19.8945133 65.1552405,19.2842661 64.8829694,18.8037592 C64.7976756,18.6532319 64.6747868,18.5274089 64.5263135,18.4385876 L35.2303932,0.912868681 C34.2895223,0.350010851 33.1165401,0.345238305 32.1711203,0.900421331 Z" id="路径-27" fill="url(#linearGradient-46)"></path>
                    <path d="M21,17.0228508 C21,17.0228508 26.2864799,15.0210736 28.899309,16.6182855 C31.5121382,18.2154974 30.042486,20.1418086 33.9300766,20.8749364 C37.8176671,21.6080643 41.4208315,18.788387 44,20.8749364" id="路径-32" stroke="#00EBFF" stroke-width="1.5" stroke-linecap="round" stroke-linejoin="round"></path>
                    <path d="M39.5,53 C40.3284271,53 41,52.3284271 41,51.5 C41,50.6715729 40.3284271,50 39.5,50 C38.6715729,50 38,50.6715729 38,51.5 C38,52.3284271 38.6715729,53 39.5,53 Z" id="椭圆形" stroke="#0F3AA6" fill="#00EBFF"></path>
                    <path d="M9.5,43 C10.3284271,43 11,42.3284271 11,41.5 C11,40.6715729 10.3284271,40 9.5,40 C8.67157288,40 8,40.6715729 8,41.5 C8,42.3284271 8.67157288,43 9.5,43 Z" id="椭圆形" stroke="#0563DB" fill="#00EBFF"></path>
                    <path d="M4.5,41 C5.32842712,41 6,40.3284271 6,39.5 C6,38.6715729 5.32842712,38 4.5,38 C3.67157288,38 3,38.6715729 3,39.5 C3,40.3284271 3.67157288,41 4.5,41 Z" id="椭圆形" stroke="#0563DB" fill="#00EBFF"></path>
                </g>
                <g id="编组-11备份" transform="translate(457.000000, 311.000000)">
                    <g id="路径-35" transform="translate(0.000000, 26.000000)">
                        <mask id="mask-48" fill="white">
                            <use xlink:href="#path-47"></use>
                        </mask>
                        <use id="蒙版" fill="url(#linearGradient-41)" xlink:href="#path-47"></use>
                        <polygon fill="#166EE0" mask="url(#mask-48)" points="33 19.7450274 33 39 0 20.3046132 0.421365676 0"></polygon>
                    </g>
                    <polygon id="路径-31" fill="#00A2E4" points="1 26.4043586 32.956852 46 66 26.7523595 32.956852 8"></polygon>
                    <g id="路径-33" transform="translate(2.000000, 17.000000)">
                        <mask id="mask-50" fill="white">
                            <use xlink:href="#path-49"></use>
                        </mask>
                        <use id="蒙版" fill="#0A3EC4" xlink:href="#path-49"></use>
                        <path d="M31,17.2042059 C31,17.4286047 31,20.0272027 31,25 L0,6.76515438 L0,0 C20.6666667,11.2450719 31,16.9798072 31,17.2042059 Z" fill="#166EE0" mask="url(#mask-50)"></path>
                    </g>
                    <path d="M32.1711203,0.900421331 L3.42357231,17.7819692 C2.947331,18.0616345 2.78797463,18.6744179 3.06763989,19.1506592 C3.14931557,19.2897445 3.26342265,19.4070094 3.40022711,19.4924505 L31.5191305,37.0540889 C32.4524222,37.6369755 33.6299232,37.6621493 34.5872738,37.1196827 L64.5059251,20.1667844 C64.986432,19.8945133 65.1552405,19.2842661 64.8829694,18.8037592 C64.7976756,18.6532319 64.6747868,18.5274089 64.5263135,18.4385876 L35.2303932,0.912868681 C34.2895223,0.350010851 33.1165401,0.345238305 32.1711203,0.900421331 Z" id="路径-27" fill="url(#linearGradient-46)"></path>
                    <path d="M21,17.0228508 C21,17.0228508 26.2864799,15.0210736 28.899309,16.6182855 C31.5121382,18.2154974 30.042486,20.1418086 33.9300766,20.8749364 C37.8176671,21.6080643 41.4208315,18.788387 44,20.8749364" id="路径-32" stroke="#00EBFF" stroke-width="1.5" stroke-linecap="round" stroke-linejoin="round"></path>
                    <path d="M39.5,53 C40.3284271,53 41,52.3284271 41,51.5 C41,50.6715729 40.3284271,50 39.5,50 C38.6715729,50 38,50.6715729 38,51.5 C38,52.3284271 38.6715729,53 39.5,53 Z" id="椭圆形" stroke="#0F3AA6" fill="#00EBFF"></path>
                    <path d="M9.5,43 C10.3284271,43 11,42.3284271 11,41.5 C11,40.6715729 10.3284271,40 9.5,40 C8.67157288,40 8,40.6715729 8,41.5 C8,42.3284271 8.67157288,43 9.5,43 Z" id="椭圆形" stroke="#0563DB" fill="#00EBFF"></path>
                    <path d="M4.5,41 C5.32842712,41 6,40.3284271 6,39.5 C6,38.6715729 5.32842712,38 4.5,38 C3.67157288,38 3,38.6715729 3,39.5 C3,40.3284271 3.67157288,41 4.5,41 Z" id="椭圆形" stroke="#0563DB" fill="#00EBFF"></path>
                </g>
                <g id="编组-6" transform="translate(236.000000, 103.000000)">
                    <path d="M32.2046807,7.19812437 C32.9303816,9.070547 33.2496121,10.453826 33.162372,11.3479613 C33.031512,12.6891642 31.4458914,15.7607085 32.2046807,17.8108147 C32.9634699,19.860921 35.6757645,21.7250511 36.5755359,22.0875246 C37.1753835,22.3291736 37.5282073,23.2999987 37.6340073,25 L47.9095383,24.2511711 C46.437183,23.2982467 45.6808612,22.5834842 45.6405728,22.1068836 C45.6002845,21.630283 45.6002845,20.9174516 45.6405728,19.9683894 C43.9821563,12.0641127 42.5687661,7.87897192 41.4004021,7.41296716 C40.2320382,6.94696241 37.1667977,6.87534815 32.2046807,7.19812437 Z" id="路径-11" fill="#EDC0AA"></path>
                    <path d="M29.1998084,4.14487057 C28.8341483,5.30130762 28.9703715,6.12446834 29.608478,6.61435275 C30.5656378,7.34917936 32.8319237,7.56907988 33.7214203,8.20600458 C34.610917,8.84292927 35.650135,11.5505907 35.4811138,12.5756961 C35.3120925,13.6008015 35.4172377,14.383232 35.9804997,14.383232 C36.5437616,14.383232 36.9027611,12.4557206 37.8887699,12.2292568 C38.8747787,12.0027931 40.1935217,14.1646627 40.1935217,14.6709018 C40.1935217,15.1771408 39.6925878,20.319836 40.1935217,21.168341 C40.6944555,22.016846 42.9869767,22.1203005 44.4322931,21.9007783 C45.8776096,21.6812561 49.7639734,16.7661075 50.2924603,14.6709018 C50.8209471,12.5756961 51.6494109,8.07336828 50.1391581,4.7599744 C48.6289052,1.44658051 42.9887495,0.182563323 40.9226195,0.182563323 C38.8564894,0.182563323 36.1784182,-0.228204154 33.5546685,0.182563323 C31.805502,0.456408307 30.353882,1.77717739 29.1998084,4.14487057 Z" id="路径-10" fill="#774D55"></path>
                    <path d="M22.2886575,39.4103121 L19.9084143,41.2522595 L6.08593337,31.3375253 C5.85179049,29.3374713 5.51486239,28.1717736 5.07514907,27.8404323 C4.41557909,27.3434202 2.53422276,26.892959 2.32694565,26.892959 C2.11966854,26.892959 3.53397475,24 2.54940337,24 C1.56483199,24 0.468351027,25.962244 0.159793488,26.6609586 C-0.148764051,27.3596732 -0.0478864301,30.2029767 0.794201437,31.3375253 C1.6362893,32.4720739 4.08774123,33.9229944 4.30871567,34.3480457 C4.52969011,34.773097 12.8980142,44.6417666 14.5,45.9032915 C16.1019858,47.1648165 18.9148503,49 20.4491249,49 C21.4719747,49 24.3222664,47.1979523 29,43.593857 L22.2886575,39.4103121 Z" id="路径-13" fill="#EDC0AA"></path>
                    <path d="M24.0145118,136.410671 C23.9121988,137.56769 24.3062078,137.769819 26.6423084,138.720232 C28.978409,139.670646 35.6141998,140 36.862667,140 C38.1111341,140 39.0769463,139.952551 39.6807837,139.28961 C40.2846211,138.62667 39.8463405,134.28922 39.8463405,134.088991 C39.8463405,133.888762 35.6522841,134.088991 34.5168836,134.088991 C33.3814831,134.088991 27.730957,134.977237 26.9732947,134.977237 C26.2156323,134.977237 24.1168249,135.253653 24.0145118,136.410671 Z" id="路径-16" fill="#FFFFFF"></path>
                    <path d="M60.7045308,130.808249 C59.9307281,130.459706 55.9706548,125.911538 55.7128952,125.263608 C55.4551355,124.615678 54.2464732,122.014602 55.7128952,121.234791 C57.1793172,120.454981 58.5794933,121.813984 59.1006138,122.455887 C59.6217343,123.09779 63.599454,126.264633 63.7897825,127.243402 C63.980111,128.222172 64.2406836,130.108866 63.5475492,130.556849 C62.8544148,131.004832 61.4783335,131.156792 60.7045308,130.808249 Z" id="路径-17" fill="#FFFFFF"></path>
                    <path d="M28,66.3455991 C28,74.604901 28,80.1418867 28,82.9565562 C28,87.1785605 28.8757709,97.8505789 29.4116675,99.7501412 C29.9475641,101.649703 32.6566254,119.043768 32.6566254,119.827113 C32.6566254,120.336243 33.1035438,124.905858 33.9973808,133.535959 C34.0203793,133.758013 34.0203793,133.969522 34.1835121,134.148817 C34.3466448,134.328111 35.8255386,135 36.8443937,135 C38.5863112,135 39.7792013,134.535813 39.945818,134.535813 C40.3030045,134.535813 41.3275588,121.153222 40.9822031,118.415478 C40.6368473,115.677734 39.6091801,105.300715 39.4525023,103.707789 C39.3480504,102.645838 39.895084,95.7287608 41.093603,82.9565562 C43.8039686,89.6785681 45.3244844,93.4807733 45.6551503,94.3631721 C46.1511491,95.6867701 49.9603262,102.782859 51.3309554,104.641116 C52.7015846,106.499374 57.5295282,123.330266 57.6297453,123.632595 C57.7299624,123.934923 58.2273082,126.121988 58.8924094,127.121667 C59.4688577,127.988097 59.9863085,128.358459 60.762866,128.358459 C62.4564291,128.358459 63.3658712,128.177891 63.5946971,128.059389 C63.8235231,127.940888 64.0407413,127.577511 63.9934705,126.957349 C63.7167077,123.326398 62.8870598,114.13021 62.2938445,109.534461 C61.7006293,104.938711 55.5331956,92.7117368 55.5331956,92.3365603 C55.5331956,91.9613839 53.5531518,66.4568456 53.1641795,65.3738106 C52.9048647,64.6517873 44.5168048,64.9757168 28,66.3455991 Z" id="路径-15" fill="#3277EF"></path>
                    <path d="M55.4497968,43.8729223 C55.3922121,45.213021 55.1024082,46.8258522 54.9607866,48.0102542 C54.6787435,50.3690234 53.9378337,53.5954014 52.7380574,57.689388 L51.3177206,59.9361959 C50.8940931,62.6388442 50.8940931,63.9901684 51.3177206,63.9901684 C51.9531619,63.9901684 53.4037913,64.1488436 54.3317346,63.1912778 C54.9503635,62.5529007 55.3230509,60.7189374 55.4497968,57.689388 C59.8165989,49.8111091 62,44.9410481 62,43.0792051 C62,40.2864406 58.796443,35 58.796443,35 C58.796443,35 56.5109922,36.5634779 53.6310776,39.7300741 C53.5405353,39.8296295 55.5068937,42.5441773 55.4497968,43.8729223 Z" id="路径-14" fill="#EDC0AA"></path>
                    <path d="M35.7797171,23.6216366 C31.9262805,26.7392916 29.2944592,29.0986096 27.8842532,30.6995907 C25.7689442,33.1010623 22,39.4989824 22,39.4989824 C22,39.4989824 24.2093845,41.1116314 28.6281536,44.3369293 L30.2244062,45.8465762 L27.7178637,65.6957395 C28.1446154,68.0237329 29.6823638,69.4280726 32.3311091,69.9087588 C36.304227,70.629788 52.7592614,66.876851 53.8756815,65.6957395 C54.9921016,64.514628 52.1375155,49.7155512 52.1375155,49.0363547 C52.1375155,48.583557 52.6623328,45.8882529 53.7119675,40.9504424 L54.8563257,43.2231919 L62,37.2855701 C57.5752703,29.3654919 54.6465899,24.8108473 53.2139587,23.6216366 C51.7813276,22.4324258 50.0580356,21.6291007 48.0440826,21.2116613 C46.4951566,22.6839151 44.9198705,23.4872402 43.3182242,23.6216366 C41.716578,23.7560329 39.2037423,23.7560329 35.7797171,23.6216366 Z" id="路径-12" fill="#FFFFFF"></path>
                </g>
                <polyline id="路径-39" stroke="#36E2E7" opacity="0.256491986" points="508.116627 319.988632 523 308.900427 490.96682 289 444.904621 322 428 311"></polyline>
            </g>
        </g>
    </g>
</svg>