<?xml version="1.0" encoding="UTF-8"?>
<svg width="70px" height="70px" viewBox="0 0 70 70" version="1.1" xmlns="http://www.w3.org/2000/svg" xmlns:xlink="http://www.w3.org/1999/xlink">
    <title>logo_white</title>
    <g id="效果图" stroke="none" stroke-width="1" fill="none" fill-rule="evenodd">
        <g id="画板" transform="translate(-80.000000, -233.000000)" fill="#FFFFFF">
            <g id="logo_white" transform="translate(88.000000, 237.000000)">
                <g id="编组" transform="translate(9.257143, 0.000000)">
                    <path d="M10.0285714,17.3577674 C10.0285714,18.847358 8.82066026,20.0571429 7.3273223,20.0571429 C5.83523347,20.0571429 4.62857143,18.847358 4.62857143,17.3577674 C4.62857143,15.8669277 5.83523347,14.6571429 7.3273223,14.6571429 C8.82066026,14.6571429 10.0285714,15.8669277 10.0285714,17.3577674" id="Fill-152"></path>
                    <path d="M33.9428571,41.7775024 C32.2987566,43.0346886 27.2464621,46.2857143 18.8966853,46.2857143 C10.8180525,46.2857143 5.46875917,42.9226752 3.85714286,41.7544408 L5.51118757,39.3428571 C5.55229008,39.3758023 10.9048981,43.2949552 18.8966853,43.2949552 C27.3001605,43.2949552 32.0441862,39.560295 32.2225181,39.4008406 L33.9428571,41.7775024 Z" id="Fill-154"></path>
                    <path d="M33.6028068,0.423913043 C32.1629363,1.78881988 28.5441526,2.29658385 26.6010076,2.29658385 C26.49543,2.29658385 26.4021591,2.2945874 26.3030587,2.2905945 L20.8285714,2.2905945 L21.5624325,3.06388642 C22.6143217,4.17391304 23.2419575,5.73979592 23.2419575,7.25443656 L23.2419575,7.70896185 L26.7221303,7.71428571 C28.2721123,7.71428571 32.9868298,7.71428571 35.9974091,5.1162378 L36.2571429,4.89130435 L34.0497301,-2.88454974e-13 L33.6028068,0.423913043 Z" id="Fill-156"></path>
                    <path d="M14.138004,1.54285714 L-4.93319671e-14,1.54285714 L-4.93319671e-14,6.75386158 L13.1686117,6.75386158 C13.5617143,6.75386158 15.5194044,6.88436739 15.5194044,9.46745952 L15.5194044,37.0285714 L20.8285714,37.0285714 L20.8285714,8.40034389 C20.8285714,5.23722596 19.0775372,1.54285714 14.138004,1.54285714" id="Fill-158"></path>
                </g>
                <path d="M5.15300365,14.6571429 L5.15300365,35.0398561 C5.15300365,46.9193801 14.7615469,56.5496371 26.6142857,56.5496371 C38.3484971,56.5496371 47.8831725,47.1110222 48.0726926,35.3955596 L48.0755678,35.0398561 L48.0755678,14.6571429 L53.2285714,14.6571429 L53.2285714,35.0398561 C53.2285714,49.7717368 41.3129498,61.7142857 26.6142857,61.7142857 C12.0626082,61.7142857 0.238590736,50.0093935 0.0035655539,35.4809665 L0,35.0398561 L0,14.6571429 L5.15300365,14.6571429 Z" id="路径" fill-rule="nonzero"></path>
            </g>
        </g>
    </g>
</svg>